<svg width="1005" height="421" viewBox="0 0 1005 421" fill="none" xmlns="http://www.w3.org/2000/svg">
<g clip-path="url(#clip0_10050_4778)">
<path d="M757.098 180.944V102.6C757.098 94.7884 763.452 88.4336 771.264 88.4336H822.515C830.327 88.4336 836.682 94.7883 836.682 102.6V180.944C836.682 188.755 830.327 195.11 822.515 195.11H771.264C763.452 195.11 757.098 188.755 757.098 180.944Z" fill="#F8CC52"/>
<path d="M783.345 122.299H810.438V115.526H783.345V122.299Z" fill="#3F3D56"/>
<path d="M790.118 110.446H803.664V88.4337H790.118V110.446Z" fill="#3F3D56"/>
<path d="M790.118 195.11H803.664V173.098H790.118V195.11Z" fill="#3F3D56"/>
<path d="M720.69 184.11H642.346C634.534 184.11 628.18 177.756 628.18 169.944V118.693C628.18 110.881 634.534 104.526 642.346 104.526H720.69C728.501 104.526 734.856 110.881 734.856 118.693V169.944C734.856 177.756 728.501 184.11 720.69 184.11Z" fill="#F8CC52"/>
<path d="M696.756 115.532H669.664V122.305H696.756V115.532Z" fill="#3F3D56"/>
<path d="M650.191 151.091V137.545H628.179V151.091H650.191Z" fill="#3F3D56"/>
<path d="M734.855 151.091V137.545H712.843V151.091H734.855Z" fill="#3F3D56"/>
<path d="M85.183 330.61L72.1043 254.318C66.2927 220.417 91.3839 189.046 125.733 187.267L312.183 177.61L356.681 104.271C362.581 94.5478 373.128 88.6104 384.5 88.6104H518.47C529 88.6104 537.898 96.4195 539.264 106.861L542.667 165.544L876.667 166.544L918.683 305.012L879.683 303.11L881.683 345.11L830.683 347.11L813.682 299.038C810.481 289.986 796.453 279.78 781.872 271.241C749.185 252.097 707.19 258.241 682.453 286.93C676.618 293.698 672.538 300.749 671.398 307.361L663.683 352.11L289.683 346.11L240.667 277.544C226.185 261.785 157.823 255.996 151.667 277.544L114.683 332.11L85.183 330.61Z" fill="#E6E6E6"/>
<path d="M491.68 133.236L502.684 185.11L362.684 188.11L392.252 124.625C394.934 118.865 400.823 115.29 407.17 115.566L474.257 118.483C482.749 118.852 489.916 124.92 491.68 133.236Z" fill="white"/>
<path d="M343.684 184.11L371.684 112.11L364.353 104.779L318.684 174.11L327.963 188.11L343.684 184.11Z" fill="white"/>
<path d="M744.684 418.11C781.134 418.11 810.684 388.561 810.684 352.11C810.684 315.66 781.134 286.11 744.684 286.11C708.233 286.11 678.684 315.66 678.684 352.11C678.684 388.561 708.233 418.11 744.684 418.11Z" fill="#3F3D56"/>
<path d="M699.184 352.11C699.184 327.021 719.595 306.61 744.684 306.61C769.772 306.61 790.184 327.021 790.184 352.11C790.184 377.199 769.772 397.61 744.684 397.61C719.595 397.61 699.184 377.199 699.184 352.11ZM700.184 352.11C700.184 376.647 720.146 396.61 744.684 396.61C769.221 396.61 789.184 376.647 789.184 352.11C789.184 327.573 769.221 307.61 744.684 307.61C720.146 307.61 700.184 327.573 700.184 352.11Z" fill="white"/>
<path d="M705.684 352.11C705.684 373.649 723.144 391.11 744.684 391.11C766.223 391.11 783.684 373.649 783.684 352.11C783.684 330.571 766.223 313.11 744.684 313.11C723.144 313.11 705.684 330.571 705.684 352.11ZM770.035 342.771L763.125 347.275L760.47 343.201L770.035 342.771ZM759.515 365.676L761.355 361.175L767.15 368.797L759.515 365.676ZM741.821 381.11L746.684 372.862V381.11H741.821ZM741.821 333.358L746.684 325.11V333.358H741.821ZM720.218 368.797L726.012 361.175L727.852 365.676L720.218 368.797ZM717.332 342.771L726.897 343.201L724.242 347.275L717.332 342.771Z" fill="#E6E6E6"/>
<path d="M190.684 418.11C227.134 418.11 256.684 388.561 256.684 352.11C256.684 315.66 227.134 286.11 190.684 286.11C154.233 286.11 124.684 315.66 124.684 352.11C124.684 388.561 154.233 418.11 190.684 418.11Z" fill="#3F3D56"/>
<path d="M145.184 352.11C145.184 327.021 165.595 306.61 190.684 306.61C215.772 306.61 236.184 327.021 236.184 352.11C236.184 377.199 215.772 397.61 190.684 397.61C165.595 397.61 145.184 377.199 145.184 352.11ZM146.184 352.11C146.184 376.647 166.146 396.61 190.684 396.61C215.221 396.61 235.184 376.647 235.184 352.11C235.184 327.573 215.221 307.61 190.684 307.61C166.146 307.61 146.184 327.573 146.184 352.11Z" fill="white"/>
<path d="M151.684 352.11C151.684 373.649 169.144 391.11 190.684 391.11C212.223 391.11 229.684 373.649 229.684 352.11C229.684 330.571 212.223 313.11 190.684 313.11C169.144 313.11 151.684 330.571 151.684 352.11ZM216.035 342.771L209.125 347.275L206.47 343.201L216.035 342.771ZM205.515 365.676L207.355 361.175L213.15 368.797L205.515 365.676ZM187.821 381.11L192.684 372.862V381.11H187.821ZM187.821 333.358L192.684 325.11V333.358H187.821ZM166.218 368.797L172.012 361.175L173.852 365.676L166.218 368.797ZM163.332 342.771L172.897 343.201L170.242 347.275L163.332 342.771Z" fill="#E6E6E6"/>
<path d="M466.184 211.61H504.184V203.61H466.184V211.61Z" fill="#3F3D56"/>
<path d="M1001.79 368.654C1001.43 367.57 998.749 368.047 998.491 367.078C998.235 366.112 1000.81 365.302 1002.79 362.579C1003.14 362.089 1005.39 358.995 1004.53 357.694C1002.89 355.228 991.538 361.37 988.812 357.923C988.214 357.167 987.968 355.868 986.186 353.451C985.477 352.49 985.022 352.026 984.479 352.039C983.708 352.059 983.432 353.024 982.22 354.771C980.402 357.392 979.746 357.063 978.549 359.21C977.66 360.804 977.555 361.822 976.914 361.882C976.007 361.967 975.632 359.983 974.523 359.906C973.392 359.827 972.261 361.788 971.7 363.32C970.647 366.196 971.299 368.393 971.443 370.583C971.6 372.963 971.232 376.447 968.646 380.919L944.254 419.781C949.492 411.859 964.362 390.255 970.353 382.331C972.082 380.043 973.941 377.746 976.801 377.314C979.556 376.898 982.907 378.261 987.584 378.181C988.13 378.172 989.65 378.127 990.02 377.321C990.326 376.655 989.567 376.076 989.843 375.45C990.213 374.61 991.88 374.97 994.151 374.412C995.752 374.019 996.84 373.369 997.776 372.81C998.058 372.642 1002.26 370.096 1001.79 368.654Z" fill="#F2F2F2"/>
<path d="M937.903 377.727C937.269 377.588 936.728 379.043 936.178 378.89C935.63 378.737 935.976 377.239 935.21 375.484C935.072 375.168 934.201 373.173 933.314 373.221C931.633 373.31 931.371 380.656 928.893 380.999C928.349 381.075 927.64 380.821 925.94 380.998C925.263 381.069 924.904 381.158 924.754 381.429C924.541 381.813 924.935 382.226 925.443 383.325C926.205 384.974 925.854 385.201 926.563 386.408C927.089 387.304 927.558 387.65 927.403 387.982C927.183 388.451 926.1 388.063 925.743 388.584C925.378 389.117 926.014 390.238 926.604 390.956C927.711 392.302 928.978 392.616 930.095 393.177C931.308 393.787 932.912 394.973 934.36 397.532L946.396 420.717C944.019 415.86 937.706 402.329 935.546 397.102C934.922 395.593 934.331 394.018 934.944 392.489C935.535 391.017 937.17 389.766 938.481 387.447C938.634 387.177 939.05 386.417 938.762 386.003C938.523 385.661 938.02 385.867 937.792 385.55C937.487 385.126 938.144 384.412 938.526 383.137C938.795 382.237 938.79 381.516 938.785 380.895C938.784 380.708 938.747 377.912 937.903 377.727Z" fill="#F2F2F2"/>
<path d="M949.91 383.384L950.289 379.891L950.521 379.672C951.594 378.657 952.266 377.582 952.518 376.476C952.558 376.3 952.589 376.122 952.62 375.941C952.746 375.223 952.902 374.33 953.593 373.403C953.979 372.886 955.001 371.719 956.055 372.127C956.34 372.233 956.532 372.418 956.665 372.613C956.699 372.579 956.733 372.545 956.77 372.509C957.225 372.066 957.544 371.904 957.851 371.748C958.087 371.628 958.33 371.504 958.742 371.175C958.923 371.03 959.068 370.9 959.19 370.791C959.559 370.46 960.033 370.074 960.681 370.227C961.368 370.415 961.603 371.07 961.76 371.504C962.039 372.278 962.125 372.81 962.182 373.163C962.202 373.292 962.226 373.437 962.244 373.484C962.394 373.863 964.282 373.961 964.992 374.002C966.589 374.089 967.97 374.164 968.302 375.257C968.541 376.039 968.044 376.892 966.783 377.86C966.39 378.161 965.998 378.369 965.656 378.524C965.866 378.723 966.034 378.993 966.044 379.362C966.067 380.234 965.172 380.903 963.385 381.355C962.941 381.468 962.343 381.618 961.562 381.58C961.194 381.562 960.871 381.506 960.596 381.453C960.555 381.61 960.48 381.772 960.344 381.927C959.946 382.382 959.304 382.498 958.432 382.241C957.469 381.973 956.709 381.608 956.037 381.288C955.451 381.008 954.946 380.769 954.521 380.704C953.732 380.594 952.997 381.081 952.116 381.729L949.91 383.384Z" fill="#F2F2F2"/>
<path d="M956.205 363.489L952.73 364.009L952.459 363.841C951.206 363.06 949.996 362.683 948.862 362.72C948.681 362.725 948.501 362.74 948.318 362.756C947.591 362.816 946.688 362.892 945.616 362.459C945.018 362.217 943.63 361.524 943.757 360.401C943.788 360.099 943.918 359.866 944.073 359.687C944.031 359.664 943.99 359.639 943.945 359.613C943.402 359.284 943.164 359.017 942.935 358.76C942.759 358.563 942.578 358.358 942.155 358.043C941.969 357.905 941.806 357.798 941.67 357.708C941.256 357.434 940.762 357.074 940.746 356.408C940.753 355.696 941.328 355.302 941.708 355.041C942.386 354.575 942.879 354.357 943.206 354.212C943.325 354.16 943.459 354.1 943.501 354.07C943.829 353.829 943.445 351.978 943.305 351.281C942.983 349.714 942.705 348.359 943.679 347.76C944.375 347.331 945.326 347.595 946.582 348.57C946.972 348.873 947.273 349.2 947.51 349.492C947.649 349.238 947.868 349.007 948.222 348.904C949.06 348.66 949.934 349.356 950.824 350.97C951.046 351.371 951.343 351.911 951.505 352.677C951.58 353.037 951.608 353.364 951.626 353.643C951.788 353.643 951.965 353.674 952.149 353.766C952.69 354.036 952.965 354.628 952.938 355.536C952.923 356.536 952.763 357.364 952.623 358.095C952.501 358.732 952.399 359.282 952.443 359.709C952.537 360.5 953.194 361.088 954.045 361.775L956.205 363.489Z" fill="#F2F2F2"/>
<path d="M956.676 353.055L957.054 349.562L957.286 349.343C958.36 348.328 959.031 347.253 959.283 346.147C959.323 345.971 959.354 345.793 959.386 345.612C959.512 344.894 959.668 344.001 960.358 343.074C960.745 342.557 961.767 341.39 962.821 341.797C963.106 341.904 963.298 342.089 963.431 342.284C963.465 342.25 963.499 342.216 963.536 342.18C963.991 341.737 964.309 341.575 964.616 341.419C964.852 341.299 965.096 341.175 965.508 340.846C965.688 340.701 965.833 340.571 965.955 340.462C966.325 340.131 966.798 339.745 967.446 339.898C968.133 340.086 968.369 340.741 968.525 341.175C968.804 341.949 968.89 342.481 968.947 342.834C968.968 342.963 968.991 343.108 969.009 343.155C969.16 343.534 971.047 343.632 971.758 343.673C973.354 343.76 974.736 343.835 975.068 344.928C975.307 345.71 974.81 346.563 973.549 347.531C973.156 347.832 972.763 348.04 972.421 348.195C972.632 348.394 972.799 348.664 972.81 349.033C972.833 349.905 971.938 350.574 970.151 351.026C969.707 351.139 969.109 351.289 968.327 351.251C967.959 351.233 967.637 351.176 967.362 351.124C967.321 351.28 967.245 351.443 967.11 351.598C966.712 352.053 966.07 352.169 965.198 351.912C964.235 351.644 963.474 351.279 962.803 350.959C962.217 350.679 961.711 350.44 961.287 350.375C960.498 350.265 959.762 350.752 958.882 351.4L956.676 353.055Z" fill="#F2F2F2"/>
<path d="M945.408 419.98L944.793 419.373L943.939 419.283C943.943 419.203 943.938 419.015 943.931 418.722C943.899 417.115 943.797 412.224 944.478 404.711C944.953 399.465 945.748 394.141 946.839 388.883C947.933 383.617 949.067 379.699 949.979 376.549C950.667 374.174 951.361 371.921 952.039 369.726C953.847 363.863 955.555 358.324 956.613 352.007C956.85 350.597 957.341 347.661 956.335 344.196C955.751 342.187 954.751 340.295 953.362 338.576L954.707 337.49C956.239 339.39 957.344 341.485 957.993 343.716C959.109 347.558 958.573 350.756 958.316 352.293C957.239 358.722 955.515 364.314 953.688 370.234C953.014 372.421 952.322 374.664 951.637 377.029C950.734 380.15 949.609 384.034 948.53 389.233C947.451 394.428 946.666 399.687 946.196 404.866C945.524 412.285 945.625 417.103 945.658 418.685C945.675 419.53 945.679 419.707 945.408 419.98Z" fill="#F2F2F2"/>
<path d="M949.676 340.564C949.607 340.548 949.537 340.531 949.468 340.51C948.05 340.113 946.913 338.958 946.087 337.077C945.7 336.193 945.609 335.262 945.427 333.406C945.398 333.12 945.272 331.672 945.427 329.753C945.528 328.499 945.663 327.995 946.004 327.6C946.383 327.159 946.894 326.907 947.433 326.78C947.448 326.614 947.502 326.452 947.61 326.298C948.054 325.66 948.797 325.922 949.2 326.059C949.403 326.132 949.656 326.224 949.941 326.272C950.388 326.35 950.655 326.271 951.06 326.154C951.447 326.042 951.928 325.902 952.593 325.914C953.905 325.932 954.876 326.521 955.197 326.716C956.884 327.729 957.466 329.346 958.14 331.219C958.274 331.594 958.718 332.951 958.822 334.698C958.897 335.958 958.731 336.474 958.542 336.843C958.155 337.601 957.563 337.953 956.093 338.692C954.557 339.467 953.787 339.855 953.155 340.055C951.685 340.516 950.762 340.806 949.676 340.564Z" fill="#F2F2F2"/>
<path d="M0 418.48C0 419.14 0.92528 419.67 2.07751 419.67H993.848C995 419.67 995.926 419.14 995.926 418.48C995.926 417.82 995 417.29 993.848 417.29H2.07751C0.92528 417.29 0 417.82 0 418.48Z" fill="#CCCCCC"/>
<path d="M503.944 410.966L517.829 410.965L524.434 357.409L503.941 357.411L503.944 410.966Z" fill="#FFB6B6"/>
<path d="M551.513 410.652C551.945 411.38 552.173 413.73 552.173 414.576C552.173 417.179 550.064 419.289 547.461 419.289L504.462 419.289C502.686 419.289 501.247 417.85 501.247 416.074V414.284C501.247 414.284 499.12 408.903 503.499 402.272C503.499 402.272 508.942 407.464 517.075 399.331L519.474 394.986L536.835 407.683L546.458 408.868C548.563 409.127 550.43 408.828 551.513 410.652Z" fill="#2F2E41"/>
<path d="M441.561 410.966L455.446 410.965L462.051 357.409L441.559 357.411L441.561 410.966Z" fill="#FFB6B6"/>
<path d="M489.13 410.652C489.563 411.38 489.791 413.73 489.791 414.576C489.791 417.179 487.681 419.289 485.078 419.289L442.079 419.289C440.304 419.289 438.864 417.85 438.864 416.074V414.284C438.864 414.284 436.737 408.903 441.116 402.272C441.116 402.272 446.559 407.464 454.693 399.331L457.091 394.986L474.452 407.683L484.075 408.868C486.181 409.127 488.047 408.828 489.13 410.652Z" fill="#2F2E41"/>
<path d="M501.741 45.2751L504.377 69.8767L473.625 67.2408L478.897 44.3965L501.741 45.2751Z" fill="#FFB6B6"/>
<path opacity="0.1" d="M501.741 45.2751L504.377 69.8767L473.625 67.2408L478.897 44.3965L501.741 45.2751Z" fill="black"/>
<path d="M490.759 48.3505C501.92 48.3505 510.968 39.3028 510.968 28.142C510.968 16.9812 501.92 7.93359 490.759 7.93359C479.598 7.93359 470.551 16.9812 470.551 28.142C470.551 39.3028 479.598 48.3505 490.759 48.3505Z" fill="#FFB6B6"/>
<path d="M503.941 59.7729L537.768 79.542L526.685 133.138L534.254 205.186L528.982 381.79L496.473 378.276L492.08 228.03L466.6 383.547H435.031L440.241 215.729L456.056 144.56L446.391 67.2412L475.825 58.0156L503.941 59.7729Z" fill="#2F2E41"/>
<path d="M505.259 33.8534C505.259 33.8534 507.016 27.703 510.97 28.1423C514.924 28.5816 515.802 25.0671 514.924 23.3098C514.045 21.5526 512.288 12.7663 512.288 12.7663C512.288 12.7663 513.166 6.6159 507.895 5.73728C502.623 4.85865 500.866 3.98002 499.987 2.22277C499.108 0.465513 485.929 -1.29174 481.536 1.34414C477.143 3.98002 473.628 9.03732 470.553 10.4625C467.478 11.8877 464.842 14.5236 466.599 18.9167C468.356 23.3098 470.905 31.9019 470.905 31.9019C470.905 31.9019 475.385 30.3389 476.264 32.9748C477.143 35.6106 473.628 32.0961 478.021 25.0671C482.415 18.0381 482.415 11.0091 489.444 13.6449C496.473 16.2808 504.38 15.4022 503.502 20.674C502.623 25.9457 505.259 33.8534 505.259 33.8534Z" fill="#2F2E41"/>
<path d="M520.324 189.424C516.095 193.902 514.978 199.714 517.828 202.405C520.678 205.096 526.416 203.647 530.646 199.167C532.36 197.4 533.627 195.249 534.339 192.893L552.018 173.693L542.832 165.589L526.378 185.377C524.066 186.223 521.99 187.611 520.324 189.424Z" fill="#FFB6B6"/>
<path d="M537.41 79.1025L567.182 129.826L571.593 152.982L542.924 189.37L530.794 173.933L545.129 152.982L521.973 112.183L537.41 79.1025Z" fill="#2F2E41"/>
<path d="M453.703 184.701V124.896C453.703 115.781 461.119 108.365 470.234 108.365H561.653C570.769 108.365 578.184 115.781 578.184 124.896V184.701C578.184 193.817 570.769 201.232 561.653 201.232H470.234C461.119 201.232 453.703 193.817 453.703 184.701Z" fill="#F8CC52"/>
<path d="M498.159 146.112H529.773V138.209H498.159V146.112Z" fill="#3F3D56"/>
<path d="M527.184 200.703V184.896H501.497V200.703H527.184Z" fill="#3F3D56"/>
<path d="M528.391 124.703V108.896H502.704V124.703H528.391Z" fill="#3F3D56"/>
<path d="M462.956 178.002C467.185 182.48 468.303 188.292 465.452 190.983C462.602 193.674 456.864 192.225 452.634 187.745C450.92 185.978 449.654 183.827 448.941 181.471L431.262 162.271L440.448 154.167L456.902 173.955C459.214 174.801 461.29 176.189 462.956 178.002Z" fill="#FFB6B6"/>
<path d="M445.867 67.6807L416.094 118.404L411.684 141.56L440.353 177.948L452.483 162.511L438.148 141.56L461.304 100.761L445.867 67.6807Z" fill="#2F2E41"/>
<path d="M75.6641 309.544C90.5758 309.544 102.664 299.023 102.664 286.044C102.664 273.065 90.5758 262.544 75.6641 262.544C60.7524 262.544 48.6641 273.065 48.6641 286.044C48.6641 299.023 60.7524 309.544 75.6641 309.544Z" fill="#E6E6E6"/>
</g>
<defs>
<clipPath id="clip0_10050_4778">
<rect width="1004.72" height="420.718" fill="white"/>
</clipPath>
</defs>
</svg>
