<?xml version="1.0" encoding="UTF-8"?>
<svg version="1.1" xmlns="http://www.w3.org/2000/svg" width="234" height="158">
<path d="M0 0 C0.88231796 -0.00700928 1.76463593 -0.01401855 2.6736908 -0.02124023 C5.5656661 -0.03872647 8.45664905 -0.02723507 11.34863281 -0.01367188 C13.36786079 -0.01636852 15.38708749 -0.02025238 17.40631104 -0.02526855 C21.62598099 -0.03115006 25.84531109 -0.02264045 30.06494141 -0.00390625 C35.47455083 0.01894105 40.88336891 0.00571504 46.29294968 -0.01819611 C50.4570921 -0.03264051 54.62104635 -0.02805532 58.7851944 -0.01768494 C60.78030745 -0.01501693 62.7754376 -0.01828998 64.7705307 -0.02760315 C67.55451375 -0.03775277 70.33720692 -0.02229275 73.12109375 0 C73.94506149 -0.00809692 74.76902924 -0.01619385 75.6179657 -0.02453613 C79.23797187 0.02921552 81.38231493 0.21207686 84.34854126 2.37252808 C85.80175781 4.51757813 85.80175781 4.51757813 85.73388672 7.35595703 C84.72011669 10.79449079 83.43335759 13.86787977 81.88769531 17.10351562 C81.59691605 17.71829269 81.30613678 18.33306976 81.00654602 18.96647644 C80.38794876 20.27263046 79.76609053 21.57724439 79.14120483 22.88040161 C77.847241 25.58006637 76.57047347 28.28772537 75.29319763 30.99531555 C74.6635397 32.33004774 74.03314419 33.66443224 73.4019928 34.99845886 C71.03741154 39.99961308 68.71902328 45.0174037 66.48925781 50.08007812 C65.9775 51.23636719 65.46574219 52.39265625 64.93847656 53.58398438 C63.90639798 56.24752737 63.24727732 58.70294311 62.80175781 61.51757812 C61.81175781 61.84757812 60.82175781 62.17757812 59.80175781 62.51757812 C59.69863281 63.15695313 59.59550781 63.79632813 59.48925781 64.45507812 C58.7277045 67.84745199 57.6581114 71.05199802 56.52050781 74.33398438 C55.84680942 76.38070939 55.29614178 78.42119995 54.80175781 80.51757812 C53.81175781 80.51757812 52.82175781 80.51757812 51.80175781 80.51757812 C51.80175781 81.17757812 51.80175781 81.83757812 51.80175781 82.51757812 C52.46175781 82.51757812 53.12175781 82.51757812 53.80175781 82.51757812 C53.48925781 84.45507812 53.48925781 84.45507812 52.80175781 86.51757812 C51.31675781 87.01257813 51.31675781 87.01257813 49.80175781 87.51757812 C50.13175781 88.17757812 50.46175781 88.83757812 50.80175781 89.51757812 C50.47175781 90.17757812 50.14175781 90.83757812 49.80175781 91.51757812 C48.31675781 92.01257813 48.31675781 92.01257813 46.80175781 92.51757812 C46.47175781 93.17757812 46.14175781 93.83757812 45.80175781 94.51757812 C60.98175781 94.51757812 76.16175781 94.51757812 91.80175781 94.51757812 C85.80175781 105.51757813 85.80175781 105.51757813 83.80175781 108.51757812 C81.0273695 109.02418995 81.0273695 109.02418995 77.53617859 109.19599915 C76.26921835 109.26029428 75.00225811 109.32458942 73.69690514 109.3908329 C67.81282847 109.58229642 61.93810124 109.6650864 56.05102539 109.6628418 C54.75657501 109.66620041 53.46212463 109.66955902 52.12844849 109.67301941 C48.62711678 109.68173552 45.1258096 109.68419181 41.62446809 109.6848352 C39.43300456 109.68555122 37.24154708 109.68769554 35.05008507 109.69033241 C27.39560938 109.69953482 19.74115096 109.70367252 12.08666992 109.70288086 C4.96094714 109.70227692 -2.16470072 109.71290329 -9.2904045 109.72862452 C-15.42826606 109.74168238 -21.56610301 109.74706571 -27.70397836 109.74642545 C-31.36198192 109.74617055 -35.01991829 109.74901926 -38.67790794 109.7596035 C-42.74227485 109.77104862 -46.80647113 109.76654867 -50.87084961 109.76049805 C-52.68715126 109.76892731 -52.68715126 109.76892731 -54.54014587 109.77752686 C-55.64312012 109.77333237 -56.74609436 109.76913788 -57.88249207 109.76481628 C-59.32225041 109.76563344 -59.32225041 109.76563344 -60.79109478 109.76646709 C-63.19824219 109.51757812 -63.19824219 109.51757812 -66.19824219 107.51757812 C-65.72257812 106.67324219 -65.24691406 105.82890625 -64.75683594 104.95898438 C-58.40992739 93.43723906 -52.9999138 81.52153001 -47.60424805 69.53540039 C-47.2956636 68.84998672 -46.98707916 68.16457306 -46.66914368 67.45838928 C-46.06008597 66.10130395 -45.4536708 64.74302929 -44.85002136 63.38352966 C-43.40915227 60.14845395 -41.93082435 56.94774179 -40.33642578 53.78515625 C-39.76875488 52.63982422 -39.20108398 51.49449219 -38.61621094 50.31445312 C-38.1021167 49.3125293 -37.58802246 48.31060547 -37.05834961 47.27832031 C-35.91320616 44.50455767 -35.91320616 44.50455767 -37.04711914 41.65527344 C-37.42698975 40.94983398 -37.80686035 40.24439453 -38.19824219 39.51757812 C-38.89691406 39.61296875 -39.59558594 39.70835938 -40.31542969 39.80664062 C-41.22550781 39.9175 -42.13558594 40.02835938 -43.07324219 40.14257812 C-43.97816406 40.25859375 -44.88308594 40.37460938 -45.81542969 40.49414062 C-46.99492188 40.50574219 -46.99492188 40.50574219 -48.19824219 40.51757812 C-48.85824219 39.85757813 -49.51824219 39.19757813 -50.19824219 38.51757812 C-49.82324219 35.89257812 -49.82324219 35.89257812 -49.19824219 33.51757812 C-47.63858001 33.00879512 -46.07534978 32.51094344 -44.51074219 32.01757812 C-43.640625 31.73914063 -42.77050781 31.46070312 -41.87402344 31.17382812 C-39.15724207 30.50752262 -36.98091623 30.2543522 -34.19824219 30.51757812 C-31.88574219 32.51757812 -31.88574219 32.51757812 -30.19824219 34.51757812 C-30.02627319 33.46002319 -30.02627319 33.46002319 -29.85083008 32.38110352 C-28.60938775 26.93371216 -25.98693967 21.99910007 -23.63574219 16.95507812 C-23.13494141 15.81876953 -22.63414063 14.68246094 -22.11816406 13.51171875 C-21.60705078 12.41923828 -21.0959375 11.32675781 -20.56933594 10.20117188 C-20.11486084 9.20657959 -19.66038574 8.2119873 -19.19213867 7.18725586 C-14.42863507 0.80928208 -7.51161388 -0.0745473 0 0 Z M81.80175781 97.51757812 C82.80175781 99.51757812 82.80175781 99.51757812 82.80175781 99.51757812 Z M80.80175781 99.51757812 C81.80175781 101.51757812 81.80175781 101.51757812 81.80175781 101.51757812 Z M77.80175781 104.51757812 C78.80175781 106.51757812 78.80175781 106.51757812 78.80175781 106.51757812 Z " fill="#EABF02" transform="translate(84.1982421875,28.482421875)"/>
<path d="M0 0 C0.88231796 -0.00700928 1.76463593 -0.01401855 2.6736908 -0.02124023 C5.5656661 -0.03872647 8.45664905 -0.02723507 11.34863281 -0.01367188 C13.36786079 -0.01636852 15.38708749 -0.02025238 17.40631104 -0.02526855 C21.62598099 -0.03115006 25.84531109 -0.02264045 30.06494141 -0.00390625 C35.47455083 0.01894105 40.88336891 0.00571504 46.29294968 -0.01819611 C50.4570921 -0.03264051 54.62104635 -0.02805532 58.7851944 -0.01768494 C60.78030745 -0.01501693 62.7754376 -0.01828998 64.7705307 -0.02760315 C67.55451375 -0.03775277 70.33720692 -0.02229275 73.12109375 0 C73.94506149 -0.00809692 74.76902924 -0.01619385 75.6179657 -0.02453613 C79.24066117 0.02925546 81.38105504 0.21002154 84.3460083 2.37756348 C85.80175781 4.51757813 85.80175781 4.51757813 85.77441406 7.27539062 C84.60136094 11.1855677 83.03048196 14.7320963 81.23925781 18.39257812 C80.90990234 19.0809375 80.58054688 19.76929687 80.24121094 20.47851562 C79.4348042 22.16145142 78.61921287 23.83998105 77.80175781 25.51757812 C77.47175781 25.51757812 77.14175781 25.51757812 76.80175781 25.51757812 C76.80175781 23.86757813 76.80175781 22.21757813 76.80175781 20.51757812 C77.46175781 20.51757812 78.12175781 20.51757812 78.80175781 20.51757812 C79.79175781 16.06257813 79.79175781 16.06257813 80.80175781 11.51757812 C81.46175781 11.51757812 82.12175781 11.51757812 82.80175781 11.51757812 C83.13175781 9.53757812 83.46175781 7.55757812 83.80175781 5.51757812 C83.14175781 5.51757812 82.48175781 5.51757812 81.80175781 5.51757812 C81.80175781 4.85757813 81.80175781 4.19757812 81.80175781 3.51757812 C63.32175781 3.18757813 44.84175781 2.85757812 25.80175781 2.51757812 C25.80175781 3.17757813 25.80175781 3.83757813 25.80175781 4.51757812 C26.79175781 4.84757812 27.78175781 5.17757812 28.80175781 5.51757812 C29.29675781 7.99257813 29.29675781 7.99257813 29.80175781 10.51757812 C32.11175781 10.51757812 34.42175781 10.51757812 36.80175781 10.51757812 C36.80175781 11.83757813 36.80175781 13.15757813 36.80175781 14.51757812 C36.32738281 14.95070313 35.85300781 15.38382813 35.36425781 15.83007812 C32.98496499 18.39971437 33.1215594 21.12768133 32.80175781 24.51757812 C32.14175781 24.51757812 31.48175781 24.51757812 30.80175781 24.51757812 C30.80175781 25.50757812 30.80175781 26.49757813 30.80175781 27.51757812 C31.46175781 27.51757812 32.12175781 27.51757812 32.80175781 27.51757812 C32.85140648 32.10740606 32.88759454 36.69707566 32.91162109 41.28710938 C32.92164339 42.84670741 32.93526487 44.40628683 32.95263672 45.96582031 C32.97705191 48.21489067 32.98827871 50.46371135 32.99707031 52.71289062 C33.00739288 53.40375763 33.01771545 54.09462463 33.02835083 54.806427 C33.02933096 59.09017975 32.3678143 62.5347009 30.80175781 66.51757812 C32.45175781 66.51757812 34.10175781 66.51757812 35.80175781 66.51757812 C37.15560397 72.91757812 37.15560397 72.91757812 35.36425781 75.95507812 C34.84863281 76.47070312 34.33300781 76.98632812 33.80175781 77.51757812 C34.46175781 77.51757812 35.12175781 77.51757812 35.80175781 77.51757812 C38.13748815 81.16715678 38.25828229 84.25668304 37.80175781 88.51757812 C36.17675781 90.95507812 36.17675781 90.95507812 33.80175781 92.51757812 C29.69398032 93.02057129 28.29299798 92.84507157 24.80175781 90.51757812 C23.81194067 86.14588574 23.81850746 82.84536945 24.80175781 78.51757812 C15.36131207 79.36125432 7.91986719 81.34903997 -0.62792969 85.27539062 C-4.94046432 86.77581296 -7.66313573 86.96256769 -12.19824219 86.51757812 C-14.16699219 85.27929688 -14.16699219 85.27929688 -15.19824219 83.51757812 C-15.60449219 81.53710938 -15.60449219 81.53710938 -15.69824219 79.33007812 C-16.07230532 74.63520406 -17.36326291 70.82416214 -19.19824219 66.51757812 C-19.59011719 65.52757813 -19.98199219 64.53757812 -20.38574219 63.51757812 C-20.65386719 62.85757813 -20.92199219 62.19757813 -21.19824219 61.51757812 C-19.71324219 61.02257812 -19.71324219 61.02257812 -18.19824219 60.51757812 C-17.70324219 62.49757813 -17.70324219 62.49757813 -17.19824219 64.51757812 C-16.53824219 64.51757812 -15.87824219 64.51757812 -15.19824219 64.51757812 C-14.68261719 65.50757812 -14.16699219 66.49757813 -13.63574219 67.51757812 C-11.59134336 70.70287063 -11.59134336 70.70287063 -8.93652344 70.91601562 C-6.66461102 70.89461614 -4.45465562 70.77793352 -2.19824219 70.51757812 C-2.19824219 68.20757812 -2.19824219 65.89757812 -2.19824219 63.51757812 C-1.37324219 63.74445313 -0.54824219 63.97132812 0.30175781 64.20507812 C4.94288375 64.61946437 7.54900447 63.35066146 11.80175781 61.51757812 C11.30675781 57.06257813 11.30675781 57.06257813 10.80175781 52.51757812 C6.45711245 53.12582848 2.12623914 53.77925204 -2.19824219 54.51757812 C-2.52824219 55.83757812 -2.85824219 57.15757813 -3.19824219 58.51757812 C-4.18824219 58.02257812 -4.18824219 58.02257812 -5.19824219 57.51757812 C-5.19824219 56.85757813 -5.19824219 56.19757813 -5.19824219 55.51757812 C-7.17824219 55.51757812 -9.15824219 55.51757812 -11.19824219 55.51757812 C-10.53824219 55.18757813 -9.87824219 54.85757813 -9.19824219 54.51757812 C-9.19824219 53.85757813 -9.19824219 53.19757813 -9.19824219 52.51757812 C-8.53824219 52.51757812 -7.87824219 52.51757812 -7.19824219 52.51757812 C-8.18824219 47.56757812 -8.18824219 47.56757812 -9.19824219 42.51757812 C-9.94589844 42.73414063 -10.69355469 42.95070312 -11.46386719 43.17382812 C-12.44871094 43.45226562 -13.43355469 43.73070312 -14.44824219 44.01757812 C-15.42277344 44.29601562 -16.39730469 44.57445312 -17.40136719 44.86132812 C-20.19824219 45.51757812 -20.19824219 45.51757812 -24.19824219 45.51757812 C-23.72013042 47.28869656 -23.24071439 49.05946296 -22.76074219 50.83007812 C-22.49390625 51.81621094 -22.22707031 52.80234375 -21.95214844 53.81835938 C-21.41744794 55.73275339 -20.8267968 57.63191428 -20.19824219 59.51757812 C-21.68324219 60.01257813 -21.68324219 60.01257813 -23.19824219 60.51757812 C-23.19824219 59.52757812 -23.19824219 58.53757813 -23.19824219 57.51757812 C-23.85824219 57.51757812 -24.51824219 57.51757812 -25.19824219 57.51757812 C-25.19824219 55.53757813 -25.19824219 53.55757812 -25.19824219 51.51757812 C-26.30232422 51.70320313 -26.30232422 51.70320313 -27.42871094 51.89257812 C-30.19824219 51.51757812 -30.19824219 51.51757812 -32.43652344 48.89257812 C-33.12101562 47.77882812 -33.80550781 46.66507813 -34.51074219 45.51757812 C-35.208125 44.40382812 -35.90550781 43.29007813 -36.62402344 42.14257812 C-37.14351562 41.27632812 -37.66300781 40.41007812 -38.19824219 39.51757812 C-39.24625 39.66066406 -39.24625 39.66066406 -40.31542969 39.80664062 C-41.22550781 39.9175 -42.13558594 40.02835938 -43.07324219 40.14257812 C-43.97816406 40.25859375 -44.88308594 40.37460938 -45.81542969 40.49414062 C-46.99492188 40.50574219 -46.99492188 40.50574219 -48.19824219 40.51757812 C-48.85824219 39.85757813 -49.51824219 39.19757813 -50.19824219 38.51757812 C-49.82324219 35.89257812 -49.82324219 35.89257812 -49.19824219 33.51757812 C-47.63858001 33.00879512 -46.07534978 32.51094344 -44.51074219 32.01757812 C-43.640625 31.73914063 -42.77050781 31.46070312 -41.87402344 31.17382812 C-39.15724207 30.50752262 -36.98091623 30.2543522 -34.19824219 30.51757812 C-31.88574219 32.51757813 -31.88574219 32.51757813 -30.19824219 34.51757812 C-30.02627319 33.46002319 -30.02627319 33.46002319 -29.85083008 32.38110352 C-28.60938775 26.93371216 -25.98693967 21.99910007 -23.63574219 16.95507812 C-23.13494141 15.81876953 -22.63414063 14.68246094 -22.11816406 13.51171875 C-21.60705078 12.41923828 -21.0959375 11.32675781 -20.56933594 10.20117188 C-20.11486084 9.20657959 -19.66038574 8.2119873 -19.19213867 7.18725586 C-14.42863507 0.80928208 -7.51161388 -0.0745473 0 0 Z " fill="#E9BE06" transform="translate(84.1982421875,28.482421875)"/>
<path d="M0 0 C1.60355101 3.50776784 2.22036864 6.14354879 2 10 C1.34 10 0.68 10 0 10 C0 10.66 0 11.32 0 12 C0.61875 12.12375 1.2375 12.2475 1.875 12.375 C4 13 4 13 6 15 C6.33 14.01 6.66 13.02 7 12 C10.86083844 9.98981139 14.73136379 8.87054733 19.0625 9.3125 C19.701875 9.539375 20.34125 9.76625 21 10 C21.495 14.455 21.495 14.455 22 19 C20.5903653 19.70180531 19.17192359 20.38593958 17.75 21.0625 C16.96109375 21.44535156 16.1721875 21.82820313 15.359375 22.22265625 C11.97260978 23.33849446 10.09495928 22.54747964 7 21 C7 23.31 7 25.62 7 28 C3.9755016 28.65272294 1.09983451 29.13871893 -2 29 C-4.5625 26.6875 -4.5625 26.6875 -6 24 C-6 23.34 -6 22.68 -6 22 C-6.66 22 -7.32 22 -8 22 C-8.495 20.02 -8.495 20.02 -9 18 C-9.99 18.495 -9.99 18.495 -11 19 C-10.65555119 21.47266765 -10.65555119 21.47266765 -10 24 C-9.34 24.33 -8.68 24.66 -8 25 C-6.33803324 29.69261202 -5.68499064 34.12551099 -5.34375 39.08203125 C-5.14647357 41.23437452 -5.14647357 41.23437452 -3 43 C-1.08958582 43.30952809 -1.08958582 43.30952809 1 43.375 C3.16796875 43.59375 3.16796875 43.59375 5 44 C6.3125 45.875 6.3125 45.875 7 48 C7.53625 48.4125 8.0725 48.825 8.625 49.25 C10.57717042 51.73458053 10.13853422 53.92566005 9.91015625 56.96484375 C9.88103304 59.44095209 9.88103304 59.44095209 12 63 C45.165 63.495 45.165 63.495 79 64 C79 64.99 79 65.98 79 67 C61.71077517 67.0466897 44.42156998 67.08197395 27.13229656 67.10362434 C19.10485923 67.11394351 11.07746104 67.12801606 3.05004883 67.15087891 C-3.9454182 67.1707932 -10.94085689 67.18371177 -17.93635148 67.18817699 C-21.64152069 67.1907877 -25.34660882 67.19693725 -29.05175209 67.21146011 C-33.1846847 67.22752884 -37.31747572 67.22798095 -41.45043945 67.22705078 C-42.68330185 67.23424133 -43.91616425 67.24143188 -45.18638611 67.24884033 C-46.30959259 67.246091 -47.43279907 67.24334167 -48.59004211 67.24050903 C-49.56806447 67.24235262 -50.54608683 67.24419621 -51.55374622 67.24609566 C-54 67 -54 67 -57 65 C-56.52433594 64.15566406 -56.04867187 63.31132812 -55.55859375 62.44140625 C-49.2301816 50.95197399 -43.8416592 39.07261568 -38.49389648 27.10571289 C-34.54478499 18.28573809 -30.39807175 9.60620757 -26 1 C-22.125 5.75 -22.125 5.75 -21 8 C-18.47266765 8.65555119 -18.47266765 8.65555119 -16 9 C-16 10.98 -16 12.96 -16 15 C-15.34 15 -14.68 15 -14 15 C-13.505 15.99 -13.505 15.99 -13 17 C-12.34 17 -11.68 17 -11 17 C-11.474375 15.989375 -11.94875 14.97875 -12.4375 13.9375 C-13.9936328 10.34077795 -14.6012946 6.90731291 -15 3 C-13.0636296 2.49564306 -11.12585854 1.99666126 -9.1875 1.5 C-8.10855469 1.2215625 -7.02960938 0.943125 -5.91796875 0.65625 C-3 0 -3 0 0 0 Z " fill="#E9BE08" transform="translate(75,71)"/>
<path d="M0 0 C1.09570312 0.00902344 2.19140625 0.01804688 3.3203125 0.02734375 C4.58488281 0.04474609 4.58488281 0.04474609 5.875 0.0625 C5.215 0.3925 4.555 0.7225 3.875 1.0625 C3.875 1.7225 3.875 2.3825 3.875 3.0625 C6.185 2.4025 8.495 1.7425 10.875 1.0625 C11.82761487 5.82557437 11.95833357 10.2291528 11.875 15.0625 C10.885 14.7325 9.895 14.4025 8.875 14.0625 C8.545 10.7625 8.215 7.4625 7.875 4.0625 C6.1438281 4.3202051 4.41509159 4.59429489 2.6875 4.875 C1.72457031 5.02582031 0.76164062 5.17664062 -0.23046875 5.33203125 C-3.33864843 6.11641668 -5.40081621 7.40430117 -8.125 9.0625 C-11.09765625 10.01171875 -11.09765625 10.01171875 -14.1875 10.75 C-15.20972656 11.00136719 -16.23195312 11.25273438 -17.28515625 11.51171875 C-20.125 12.0625 -20.125 12.0625 -24.125 12.0625 C-23.63 13.3928125 -23.63 13.3928125 -23.125 14.75 C-22.20325699 17.80327373 -22.03947776 19.92490276 -22.125 23.0625 C-21.36574219 22.8459375 -20.60648438 22.629375 -19.82421875 22.40625 C-18.83035156 22.1278125 -17.83648437 21.849375 -16.8125 21.5625 C-15.82636719 21.2840625 -14.84023437 21.005625 -13.82421875 20.71875 C-11.125 20.0625 -11.125 20.0625 -8.125 20.0625 C-8.125 19.0725 -8.125 18.0825 -8.125 17.0625 C-7.465 17.0625 -6.805 17.0625 -6.125 17.0625 C-6.125 17.7225 -6.125 18.3825 -6.125 19.0625 C-4.475 19.0625 -2.825 19.0625 -1.125 19.0625 C-1.125 19.7225 -1.125 20.3825 -1.125 21.0625 C-2.115 21.0625 -3.105 21.0625 -4.125 21.0625 C-3.63 22.42375 -3.63 22.42375 -3.125 23.8125 C-2.125 27.0625 -2.125 27.0625 -2.125 31.0625 C1.175 30.0725 4.475 29.0825 7.875 28.0625 C7.38 22.6175 7.38 22.6175 6.875 17.0625 C8.525 16.7325 10.175 16.4025 11.875 16.0625 C12.875 17.0625 12.875 17.0625 12.97265625 20.44140625 C12.96598369 21.83597077 12.95402532 23.23051743 12.9375 24.625 C12.93298828 25.33591797 12.92847656 26.04683594 12.92382812 26.77929688 C12.91200864 28.54040013 12.89407263 30.30146036 12.875 32.0625 C12.215 32.0625 11.555 32.0625 10.875 32.0625 C10.875 32.7225 10.875 33.3825 10.875 34.0625 C5.43003419 36.36361069 -0.01763185 38.65813849 -5.46826172 40.94580078 C-7.19464473 41.67144643 -8.92027536 42.39888561 -10.64501953 43.12841797 C-12.96962541 44.11141828 -15.2969462 45.08769915 -17.625 46.0625 C-18.3358374 46.36486572 -19.0466748 46.66723145 -19.77905273 46.97875977 C-22.72518613 48.20556693 -24.89968711 49.0625 -28.125 49.0625 C-28.125 50.0525 -28.125 51.0425 -28.125 52.0625 C-20.98089544 50.6410823 -14.29043849 48.5141021 -7.4375 46.0625 C-5.43368392 45.35391161 -3.42978026 44.64557084 -1.42578125 43.9375 C1.50724861 42.90048266 4.43967101 41.86186829 7.37109375 40.8203125 C10.296393 39.93496452 12.83594451 39.91778307 15.875 40.0625 C16.37 42.0425 16.37 42.0425 16.875 44.0625 C9.92919565 46.72586787 2.90108741 49.06835973 -4.171875 51.36914062 C-9.51034561 53.12645243 -14.70929636 55.0588812 -19.87768555 57.27001953 C-23.52502499 58.55619702 -26.28809544 58.53369881 -30.125 58.0625 C-32.18922659 56.5179055 -33.00947189 55.62569956 -33.53125 53.08203125 C-33.5621875 52.35371094 -33.593125 51.62539062 -33.625 50.875 C-33.99906314 46.18012594 -35.29002072 42.36908402 -37.125 38.0625 C-37.516875 37.0725 -37.90875 36.0825 -38.3125 35.0625 C-38.580625 34.4025 -38.84875 33.7425 -39.125 33.0625 C-37.64 32.5675 -37.64 32.5675 -36.125 32.0625 C-35.63 34.0425 -35.63 34.0425 -35.125 36.0625 C-34.465 36.0625 -33.805 36.0625 -33.125 36.0625 C-32.609375 37.0525 -32.09375 38.0425 -31.5625 39.0625 C-29.51810118 42.2477925 -29.51810118 42.2477925 -26.86328125 42.4609375 C-24.59136883 42.43953801 -22.38141343 42.3228554 -20.125 42.0625 C-20.125 39.7525 -20.125 37.4425 -20.125 35.0625 C-19.3 35.289375 -18.475 35.51625 -17.625 35.75 C-12.98387407 36.16438624 -10.37775335 34.89558334 -6.125 33.0625 C-6.62 28.6075 -6.62 28.6075 -7.125 24.0625 C-11.46964536 24.67075035 -15.80051867 25.32417392 -20.125 26.0625 C-20.455 27.3825 -20.785 28.7025 -21.125 30.0625 C-21.785 29.7325 -22.445 29.4025 -23.125 29.0625 C-23.125 28.4025 -23.125 27.7425 -23.125 27.0625 C-25.105 27.0625 -27.085 27.0625 -29.125 27.0625 C-28.465 26.7325 -27.805 26.4025 -27.125 26.0625 C-27.125 25.4025 -27.125 24.7425 -27.125 24.0625 C-26.465 24.0625 -25.805 24.0625 -25.125 24.0625 C-25.785 20.7625 -26.445 17.4625 -27.125 14.0625 C-27.87265625 14.2790625 -28.6203125 14.495625 -29.390625 14.71875 C-30.86789063 15.13640625 -30.86789063 15.13640625 -32.375 15.5625 C-33.34953125 15.8409375 -34.3240625 16.119375 -35.328125 16.40625 C-38.125 17.0625 -38.125 17.0625 -42.125 17.0625 C-41.64688823 18.83361844 -41.1674722 20.60438483 -40.6875 22.375 C-40.42066406 23.36113281 -40.15382813 24.34726563 -39.87890625 25.36328125 C-39.34420575 27.27767526 -38.75355462 29.17683615 -38.125 31.0625 C-39.115 31.3925 -40.105 31.7225 -41.125 32.0625 C-41.125 31.0725 -41.125 30.0825 -41.125 29.0625 C-41.785 29.0625 -42.445 29.0625 -43.125 29.0625 C-43.125 27.0825 -43.125 25.1025 -43.125 23.0625 C-43.86105469 23.18625 -44.59710938 23.31 -45.35546875 23.4375 C-48.125 23.0625 -48.125 23.0625 -50.36328125 20.4375 C-51.04777344 19.32375 -51.73226562 18.21 -52.4375 17.0625 C-53.13488281 15.94875 -53.83226562 14.835 -54.55078125 13.6875 C-55.07027344 12.82125 -55.58976562 11.955 -56.125 11.0625 C-57.17300781 11.20558594 -57.17300781 11.20558594 -58.2421875 11.3515625 C-59.15226562 11.46242188 -60.06234375 11.57328125 -61 11.6875 C-61.90492187 11.80351563 -62.80984375 11.91953125 -63.7421875 12.0390625 C-64.52851562 12.04679687 -65.31484375 12.05453125 -66.125 12.0625 C-66.785 11.4025 -67.445 10.7425 -68.125 10.0625 C-67.75 7.4375 -67.75 7.4375 -67.125 5.0625 C-65.56533782 4.553717 -64.00210759 4.05586531 -62.4375 3.5625 C-61.56738281 3.2840625 -60.69726562 3.005625 -59.80078125 2.71875 C-57.02871855 2.03888645 -54.95552533 1.64735629 -52.125 2.0625 C-50.54296875 3.8125 -50.54296875 3.8125 -49.3125 6.0625 C-48.89355469 6.805 -48.47460938 7.5475 -48.04296875 8.3125 C-47.58857422 9.17875 -47.58857422 9.17875 -47.125 10.0625 C-39.41143523 9.51701034 -32.17242067 7.65982486 -24.73852539 5.62402344 C-22.6692937 5.05751553 -20.5976462 4.50064674 -18.52539062 3.9453125 C-3.75976775 -0.03999753 -3.75976775 -0.03999753 0 0 Z " fill="#547727" transform="translate(102.125,56.9375)"/>
<path d="M0 0 C2.00935779 3.01403669 2.31423376 4.04954717 2.6328125 7.5 C2.71692383 8.38228271 2.80103516 9.26456543 2.88769531 10.17358398 C2.96600586 11.10630127 3.04431641 12.03901855 3.125 13 C3.2084668 13.94883057 3.29193359 14.89766113 3.37792969 15.87524414 C4.92141032 34.24423864 4.92141032 34.24423864 2 41 C3.65 41 5.3 41 7 41 C8.35384615 47.4 8.35384615 47.4 6.5625 50.4375 C6.046875 50.953125 5.53125 51.46875 5 52 C5.66 52 6.32 52 7 52 C9.33573034 55.64957865 9.45652447 58.73910491 9 63 C7.375 65.4375 7.375 65.4375 5 67 C0.89222251 67.50299316 -0.50875983 67.32749345 -4 65 C-5.04054733 60.40424929 -4.94053664 57.70268322 -4 53 C-9.445 53.495 -9.445 53.495 -15 54 C-12.23406281 52.61703141 -9.99430984 51.59503044 -7.109375 50.7109375 C-6.40039062 50.49179688 -5.69140625 50.27265625 -4.9609375 50.046875 C-3.86652344 49.71429688 -3.86652344 49.71429688 -2.75 49.375 C-1.63238281 49.03082031 -1.63238281 49.03082031 -0.4921875 48.6796875 C1.3375871 48.11667993 3.16866703 47.55791772 5 47 C5 46.01 5 45.02 5 44 C-1.20703557 44.26412917 -6.26061159 45.28961105 -11.953125 47.74609375 C-15.99947539 49.41132256 -20.10871239 50.84051059 -24.25 52.25 C-25.40338867 52.65545044 -25.40338867 52.65545044 -26.58007812 53.0690918 C-30.8653227 54.51596684 -34.41222918 55.32143617 -39 55 C-39 54.01 -39 53.02 -39 52 C-37.75863281 51.50693359 -37.75863281 51.50693359 -36.4921875 51.00390625 C-35.29851562 50.52824219 -34.10484375 50.05257812 -32.875 49.5625 C-32.22571533 49.30388184 -31.57643066 49.04526367 -30.9074707 48.77880859 C-26.65251075 47.07800368 -22.41044155 45.34842557 -18.17578125 43.59765625 C-17.18529785 43.18894287 -16.19481445 42.78022949 -15.17431641 42.35913086 C-13.19491463 41.54125641 -11.21670558 40.72048892 -9.23974609 39.89672852 C-8.32918457 39.52088623 -7.41862305 39.14504395 -6.48046875 38.7578125 C-5.66473389 38.4189502 -4.84899902 38.08008789 -4.00854492 37.73095703 C-2 37 -2 37 0 37 C0 36.34 0 35.68 0 35 C0.66 35 1.32 35 2 35 C1.505 27.575 1.505 27.575 1 20 C-0.32 20.33 -1.64 20.66 -3 21 C-3 24.3 -3 27.6 -3 31 C-9.625 34 -9.625 34 -13 34 C-13.66 30.7 -14.32 27.4 -15 24 C-14.01 24 -13.02 24 -12 24 C-12 23.34 -12 22.68 -12 22 C-13.65 22 -15.3 22 -17 22 C-17 21.34 -17 20.68 -17 20 C-17.66 20 -18.32 20 -19 20 C-19 20.99 -19 21.98 -19 23 C-20.76949612 23.50471197 -22.54065223 24.00360685 -24.3125 24.5 C-25.29863281 24.7784375 -26.28476563 25.056875 -27.30078125 25.34375 C-30 26 -30 26 -33 26 C-33.66 22.37 -34.32 18.74 -35 15 C-33.9378125 14.75765625 -32.875625 14.5153125 -31.78125 14.265625 C-22.85030892 12.32354648 -22.85030892 12.32354648 -14.5 8.75 C-10.20403498 6.60201749 -7.72209154 6.66270775 -3 7 C-1.68373308 10.61973402 -1 13.09567131 -1 17 C-0.34 17.33 0.32 17.66 1 18 C0.01 11.565 0.01 11.565 -1 5 C-1.33 5.33 -1.66 5.66 -2 6 C-3.66617115 6.04063832 -5.33388095 6.042721 -7 6 C-7 5.34 -7 4.68 -7 4 C-9.97 3.505 -9.97 3.505 -13 3 C-8.71955473 0.70690432 -4.90496348 -0.51631195 0 0 Z " fill="#949413" transform="translate(113,54)"/>
<path d="M0 0 C2.24997418 1.85111512 4.04697113 3.81446769 6 6 C6.515625 5.690625 7.03125 5.38125 7.5625 5.0625 C10 4 10 4 13.625 3.5 C17.06422625 3.33300503 17.06422625 3.33300503 19 1 C19.99 1 20.98 1 22 1 C22 3.97 22 6.94 22 10 C24.475 10.495 24.475 10.495 27 11 C26.67 11.99 26.34 12.98 26 14 C24.68 14 23.36 14 22 14 C21.175 14.825 20.35 15.65 19.5 16.5 C18.675 17.325 17.85 18.15 17 19 C15.68 19 14.36 19 13 19 C13.09539062 19.66386719 13.19078125 20.32773438 13.2890625 21.01171875 C14.39015817 29.78207381 14.39015817 29.78207381 12 34 C8.535 34.495 8.535 34.495 5 35 C2.05901639 31.41967213 2.05901639 31.41967213 1.71875 29 C1.16261329 26.76189497 1.16261329 26.76189497 -1.28515625 25.734375 C-2.20167969 25.40953125 -3.11820313 25.0846875 -4.0625 24.75 C-5.44115234 24.24726562 -5.44115234 24.24726562 -6.84765625 23.734375 C-7.55792969 23.49203125 -8.26820313 23.2496875 -9 23 C-8.82082031 22.18015625 -8.64164063 21.3603125 -8.45703125 20.515625 C-8.24433594 19.43796875 -8.03164062 18.3603125 -7.8125 17.25 C-7.59207031 16.18265625 -7.37164062 15.1153125 -7.14453125 14.015625 C-6.97323279 10.44150571 -7.68285082 9.59818955 -10 7 C-10.4375 4.4375 -10.4375 4.4375 -10 2 C-6.89573842 -1.58184028 -4.33429545 -1.47366045 0 0 Z " fill="#F3E967" transform="translate(190,50)"/>
<path d="M0 0 C1.60355101 3.50776784 2.22036864 6.14354879 2 10 C1.34 10 0.68 10 0 10 C0 10.66 0 11.32 0 12 C0.61875 12.12375 1.2375 12.2475 1.875 12.375 C4 13 4 13 6 15 C6.33 14.01 6.66 13.02 7 12 C10.86083844 9.98981139 14.73136379 8.87054733 19.0625 9.3125 C19.701875 9.539375 20.34125 9.76625 21 10 C21.495 14.455 21.495 14.455 22 19 C20.5903653 19.70180531 19.17192359 20.38593958 17.75 21.0625 C16.96109375 21.44535156 16.1721875 21.82820313 15.359375 22.22265625 C11.97260978 23.33849446 10.09495928 22.54747964 7 21 C7 23.31 7 25.62 7 28 C3.9755016 28.65272294 1.09983451 29.13871893 -2 29 C-4.5625 26.6875 -4.5625 26.6875 -6 24 C-6 23.34 -6 22.68 -6 22 C-6.66 22 -7.32 22 -8 22 C-8.33 20.68 -8.66 19.36 -9 18 C-9.66 18.33 -10.32 18.66 -11 19 C-10.65555119 21.47266765 -10.65555119 21.47266765 -10 24 C-9.34 24.33 -8.68 24.66 -8 25 C-8.33 26.32 -8.66 27.64 -9 29 C-10.84052424 26.0460832 -12.67117365 23.08617092 -14.5 20.125 C-15.02464844 19.28324219 -15.54929687 18.44148438 -16.08984375 17.57421875 C-16.58613281 16.76855469 -17.08242188 15.96289062 -17.59375 15.1328125 C-18.28500977 14.01737061 -18.28500977 14.01737061 -18.99023438 12.87939453 C-20 11 -20 11 -20 9 C-18.68 9 -17.36 9 -16 9 C-16 10.98 -16 12.96 -16 15 C-15.34 15 -14.68 15 -14 15 C-13.67 15.66 -13.34 16.32 -13 17 C-12.34 17 -11.68 17 -11 17 C-11.7115625 15.4840625 -11.7115625 15.4840625 -12.4375 13.9375 C-13.9936328 10.34077795 -14.6012946 6.90731291 -15 3 C-13.0636296 2.49564306 -11.12585854 1.99666126 -9.1875 1.5 C-8.10855469 1.2215625 -7.02960938 0.943125 -5.91796875 0.65625 C-3 0 -3 0 0 0 Z " fill="#60781A" transform="translate(75,71)"/>
<path d="M0 0 C0.495 1.98 0.495 1.98 1 4 C-5.94580435 6.66336787 -12.97391259 9.00585973 -20.046875 11.30664062 C-25.38534561 13.06395243 -30.58429636 14.9963812 -35.75268555 17.20751953 C-39.40002499 18.49369702 -42.16309544 18.47119881 -46 18 C-48.15433374 16.40549312 -48.89464686 15.47667976 -49.4765625 12.84375 C-49.52554688 12.0703125 -49.57453125 11.296875 -49.625 10.5 C-49.82114148 7.69797885 -50.09958182 5.70125455 -51 3 C-50.34 3 -49.68 3 -49 3 C-48.34 5.97 -47.68 8.94 -47 12 C-46.67 10.35 -46.34 8.7 -46 7 C-44.35 7.33 -42.7 7.66 -41 8 C-41.99 8.33 -42.98 8.66 -44 9 C-44 9.99 -44 10.98 -44 12 C-36.85589544 10.5785823 -30.16543849 8.4516021 -23.3125 6 C-21.30868392 5.29141161 -19.30478026 4.58307084 -17.30078125 3.875 C-14.36775139 2.83798266 -11.43532899 1.79936829 -8.50390625 0.7578125 C-5.578607 -0.12753548 -3.03905549 -0.14471693 0 0 Z " fill="#5B781B" transform="translate(118,97)"/>
<path d="M0 0 C0.99 0.495 0.99 0.495 2 1 C3.4801641 0.96910473 4.95973835 0.90228191 6.4375 0.8125 C8.8671875 0.76953125 8.8671875 0.76953125 11 1 C13.0625 3 13.0625 3 14 5 C12.35 5.33 10.7 5.66 9 6 C9.34933594 6.45890625 9.69867188 6.9178125 10.05859375 7.390625 C10.51363281 8.00421875 10.96867188 8.6178125 11.4375 9.25 C12.11619141 10.15492187 12.11619141 10.15492187 12.80859375 11.078125 C14.03900997 13.06292756 14.56112668 14.71987655 15 17 C14.01 17.33 13.02 17.66 12 18 C12 19.98 12 21.96 12 24 C11.77570313 23.38640625 11.55140625 22.7728125 11.3203125 22.140625 C9.57487194 19.31073913 7.9690077 18.86066943 4.875 17.75 C3.50988281 17.24726562 3.50988281 17.24726562 2.1171875 16.734375 C1.41851562 16.49203125 0.71984375 16.2496875 0 16 C0.16757813 15.18015625 0.33515625 14.3603125 0.5078125 13.515625 C0.71148437 12.43796875 0.91515625 11.3603125 1.125 10.25 C1.33382812 9.18265625 1.54265625 8.1153125 1.7578125 7.015625 C2.01099324 3.86311649 1.70415175 2.60040934 0 0 Z " fill="#EBE16E" transform="translate(181,57)"/>
<path d="M0 0 C2.1519437 3.22791555 2.20086443 4.28400809 2 8 C2.75925781 7.7834375 3.51851562 7.566875 4.30078125 7.34375 C5.29464844 7.0653125 6.28851563 6.786875 7.3125 6.5 C8.29863281 6.2215625 9.28476563 5.943125 10.30078125 5.65625 C13 5 13 5 16 5 C16 4.01 16 3.02 16 2 C16.66 2 17.32 2 18 2 C18 2.66 18 3.32 18 4 C19.65 4 21.3 4 23 4 C23 4.66 23 5.32 23 6 C22.01 6 21.02 6 20 6 C20.350625 6.86625 20.70125 7.7325 21.0625 8.625 C22.08893421 12.32016316 22.05726385 14.34024051 21 18 C19.5625 19.875 19.5625 19.875 18 21 C17.34 21 16.68 21 16 21 C16 21.66 16 22.32 16 23 C12.7 23.66 9.4 24.32 6 25 C6.33 23.68 6.66 22.36 7 21 C7.886875 20.87625 8.77375 20.7525 9.6875 20.625 C12.70387502 20.05587264 15.20326054 19.23385564 18 18 C17.67 15.03 17.34 12.06 17 9 C12.65535464 9.60825035 8.32448133 10.26167392 4 11 C3.67 12.32 3.34 13.64 3 15 C2.34 14.67 1.68 14.34 1 14 C1 13.34 1 12.68 1 12 C-0.98 12 -2.96 12 -5 12 C-4.34 11.67 -3.68 11.34 -3 11 C-3 10.34 -3 9.68 -3 9 C-2.34 9 -1.68 9 -1 9 C-1.33 6.36 -1.66 3.72 -2 1 C-1.34 0.67 -0.68 0.34 0 0 Z " fill="#647A15" transform="translate(78,72)"/>
<path d="M0 0 C0.66 0 1.32 0 2 0 C2.66 1.98 3.32 3.96 4 6 C5.65 6 7.3 6 9 6 C9 6.99 9 7.98 9 9 C8.34 9.66 7.68 10.32 7 11 C6.83322718 14.58343976 6.83322718 14.58343976 7 18 C5.7625 17.814375 4.525 17.62875 3.25 17.4375 C0.23720423 17.05288777 -2.10010827 16.9125406 -5 18 C-4.9175 16.948125 -4.835 15.89625 -4.75 14.8125 C-5.03525487 10.46236331 -6.02449969 9.0684847 -9 6 C-6.36 6 -3.72 6 -1 6 C-0.67 4.02 -0.34 2.04 0 0 Z " fill="#657914" transform="translate(109,34)"/>
<path d="M0 0 C1.60355101 3.50776784 2.22036864 6.14354879 2 10 C0.58603098 10.50757862 -0.83131729 11.00574925 -2.25 11.5 C-3.03890625 11.7784375 -3.8278125 12.056875 -4.640625 12.34375 C-7 13 -7 13 -11 13 C-15 6.375 -15 6.375 -15 3 C-13.0636296 2.49564306 -11.12585854 1.99666126 -9.1875 1.5 C-8.10855469 1.2215625 -7.02960938 0.943125 -5.91796875 0.65625 C-3 0 -3 0 0 0 Z " fill="#E9BE07" transform="translate(75,71)"/>
<path d="M0 0 C0.33 2.97 0.66 5.94 1 9 C-0.4096347 9.70180531 -1.82807641 10.38593958 -3.25 11.0625 C-4.03890625 11.44535156 -4.8278125 11.82820313 -5.640625 12.22265625 C-8 13 -8 13 -12 12 C-12.66 8.7 -13.32 5.4 -14 2 C-4.42857143 -1.57142857 -4.42857143 -1.57142857 0 0 Z " fill="#EBBF03" transform="translate(96,81)"/>
<path d="M0 0 C2.3129482 2.3129482 2.49580975 3.47904875 3.125 6.625 C3.29257813 7.44226563 3.46015625 8.25953125 3.6328125 9.1015625 C3.81457031 10.04128906 3.81457031 10.04128906 4 11 C2.23050388 11.50471197 0.45934777 12.00360685 -1.3125 12.5 C-2.29863281 12.7784375 -3.28476563 13.056875 -4.30078125 13.34375 C-7 14 -7 14 -10 14 C-10.66 10.37 -11.32 6.74 -12 3 C-10.04563873 2.44417248 -8.08633018 1.90571287 -6.125 1.375 C-5.03445312 1.07335937 -3.94390625 0.77171875 -2.8203125 0.4609375 C-1.88960937 0.30882813 -0.95890625 0.15671875 0 0 Z " fill="#D9BD11" transform="translate(90,66)"/>
<path d="M0 0 C0 0.66 0 1.32 0 2 C-1.98 2.99 -3.96 3.98 -6 5 C-4.68 5.66 -3.36 6.32 -2 7 C-6.20297187 8.51532674 -10.41315969 10.00951879 -14.625 11.5 C-15.81480469 11.92925781 -17.00460938 12.35851562 -18.23046875 12.80078125 C-19.96103516 13.40986328 -19.96103516 13.40986328 -21.7265625 14.03125 C-22.78439941 14.40830078 -23.84223633 14.78535156 -24.93212891 15.17382812 C-28.09321995 16.02510396 -30.74265794 16.15368849 -34 16 C-34 15.01 -34 14.02 -34 13 C-33.11441406 12.64808594 -32.22882813 12.29617187 -31.31640625 11.93359375 C-30.06502611 11.43509174 -28.81373105 10.93637612 -27.5625 10.4375 C-26.56923706 10.04183838 -26.56923706 10.04183838 -25.5559082 9.63818359 C-21.78911354 8.13251925 -18.03320085 6.60418629 -14.2890625 5.04296875 C-13.52134521 4.72336182 -12.75362793 4.40375488 -11.96264648 4.07446289 C-10.46089802 3.44775404 -8.96037807 2.81809219 -7.46118164 2.18530273 C-2.2202792 0 -2.2202792 0 0 0 Z " fill="#DDBE11" transform="translate(108,93)"/>
<path d="M0 0 C0.33 3.63 0.66 7.26 1 11 C-3.1196377 12.29243536 -6.66831683 13.26252625 -11 13 C-12.31626692 9.38026598 -13 6.90432869 -13 3 C-11.58603098 2.49242138 -10.16868271 1.99425075 -8.75 1.5 C-7.96109375 1.2215625 -7.1721875 0.943125 -6.359375 0.65625 C-4 0 -4 0 0 0 Z " fill="#EBBF03" transform="translate(108,62)"/>
<path d="M0 0 C1.875 1.0625 1.875 1.0625 3 3 C3.63316583 8.90954774 3.63316583 8.90954774 1.875 11.9375 C-0.85984439 13.48724515 -2.9124407 13.32162076 -6 13 C-9 11 -9 11 -9.9375 7.625 C-10 4 -10 4 -8.4375 1.5625 C-5.34111489 -0.42236225 -3.61581862 -0.53852618 0 0 Z " fill="#5E7719" transform="translate(118,108)"/>
<path d="M0 0 C11.79577606 -0.09262544 23.5914658 -0.16372724 35.38753128 -0.20724869 C40.86476728 -0.22813543 46.34175472 -0.25647319 51.81884766 -0.30175781 C57.1032328 -0.34517637 62.38737867 -0.36912892 67.67192841 -0.37950897 C69.68940753 -0.38690749 71.70687336 -0.40135487 73.72425079 -0.42292023 C76.54725076 -0.45190101 79.36925835 -0.45595822 82.19238281 -0.45410156 C83.02891891 -0.46848267 83.86545502 -0.48286377 84.7273407 -0.49768066 C88.3824383 -0.47161936 90.55367792 -0.3245775 93.55218506 1.85601807 C95 4 95 4 94.97265625 6.7578125 C93.79960313 10.66798958 92.22872415 14.21451817 90.4375 17.875 C90.10814453 18.56335938 89.77878906 19.25171875 89.43945312 19.9609375 C88.63304639 21.6438733 87.81745506 23.32240293 87 25 C86.67 25 86.34 25 86 25 C86 23.35 86 21.7 86 20 C86.66 20 87.32 20 88 20 C88.99 15.545 88.99 15.545 90 11 C90.66 11 91.32 11 92 11 C92.33 9.02 92.66 7.04 93 5 C92.34 5 91.68 5 91 5 C91 4.34 91 3.68 91 3 C87.75153725 1.37576863 84.1744388 1.81959228 80.60302734 1.79467773 C79.73466751 1.78477814 78.86630768 1.77487854 77.97163391 1.76467896 C75.09309645 1.73301842 72.21454247 1.70828855 69.3359375 1.68359375 C67.34338953 1.66302815 65.35084595 1.64203179 63.35830688 1.62062073 C58.10745808 1.56535933 52.85656964 1.51596801 47.60565186 1.46777344 C42.25008608 1.41758809 36.89457804 1.36188656 31.5390625 1.30664062 C21.02609096 1.1990093 10.51306934 1.09757539 0 1 C0 0.67 0 0.34 0 0 Z " fill="#D9BC46" transform="translate(75,29)"/>
<path d="M0 0 C2.4375 1.625 2.4375 1.625 4 4 C3.93521587 7.17442218 3.46700625 9.19571146 1.875 11.9375 C-1.19634906 13.67793113 -3.68368383 12.78385655 -7 12 C-9 10 -9 10 -9.3125 6.5625 C-9 3 -9 3 -7.875 1.0625 C-5.06487736 -0.52990283 -3.17235276 -0.45319325 0 0 Z " fill="#5F781C" transform="translate(81,118)"/>
<path d="M0 0 C1.98 0.66 3.96 1.32 6 2 C7.51708428 11.41002278 7.51708428 11.41002278 5 16 C1.625 16.625 1.625 16.625 -2 17 C-4 15 -4 15 -4.1953125 13.0546875 C-4.13020833 11.03645833 -4.06510417 9.01822917 -4 7 C-3.34 6.67 -2.68 6.34 -2 6 C-1.27306096 4.02111039 -0.60183749 2.02045442 0 0 Z " fill="#C9D9D9" transform="translate(197,68)"/>
<path d="M0 0 C1.45184478 4.53701494 2.23509196 8.18061476 2 13 C-0.31 13.66 -2.62 14.32 -5 15 C-6.17232685 13.3790787 -7.3377077 11.75313167 -8.5 10.125 C-9.1496875 9.22007813 -9.799375 8.31515625 -10.46875 7.3828125 C-12 5 -12 5 -12 3 C-10.56445975 2.49440092 -9.1264798 1.9957251 -7.6875 1.5 C-6.88699219 1.2215625 -6.08648437 0.943125 -5.26171875 0.65625 C-3 0 -3 0 0 0 Z " fill="#DFBE0F" transform="translate(79,84)"/>
<path d="M0 0 C15.51 0 31.02 0 47 0 C46.01 1.98 45.02 3.96 44 6 C43.505 4.02 43.505 4.02 43 2 C40.66475218 4.25740623 38.81294927 6.2805761 37 9 C34.875 9.6875 34.875 9.6875 33 10 C33.33 8.35 33.66 6.7 34 5 C32.68 5 31.36 5 30 5 C30 5.66 30 6.32 30 7 C28.68 7 27.36 7 26 7 C26.33 5.35 26.66 3.7 27 2 C18.09 1.67 9.18 1.34 0 1 C0 0.67 0 0.34 0 0 Z M37 3 C38 5 38 5 38 5 Z M36 5 C37 7 37 7 37 7 Z " fill="#E4BF2D" transform="translate(129,123)"/>
<path d="M0 0 C0.66 0 1.32 0 2 0 C2.33 1.65 2.66 3.3 3 5 C5.31 5 7.62 5 10 5 C10 6.32 10 7.64 10 9 C9.525625 9.433125 9.05125 9.86625 8.5625 10.3125 C6.18320718 12.88213625 6.31980158 15.61010321 6 19 C5.34 19 4.68 19 4 19 C4 19.99 4 20.98 4 22 C4.66 22 5.32 22 6 22 C6 29.26 6 36.52 6 44 C5.67 44 5.34 44 5 44 C4.91697632 43.06148193 4.91697632 43.06148193 4.83227539 42.10400391 C4.57986101 39.27727803 4.32125807 36.45115193 4.0625 33.625 C3.93198242 32.14773437 3.93198242 32.14773437 3.79882812 30.640625 C3.71181641 29.69960938 3.62480469 28.75859375 3.53515625 27.7890625 C3.456604 26.91975098 3.37805176 26.05043945 3.29711914 25.15478516 C3.11122166 22.95507084 3.11122166 22.95507084 2 21 C-0.97 21 -3.94 21 -7 21 C-6.34 19.68 -5.68 18.36 -5 17 C1.14634146 15.57317073 1.14634146 15.57317073 4 17 C3.938125 16.0925 3.87625 15.185 3.8125 14.25 C4.01672076 10.71017358 4.64551835 9.55068845 7 7 C5.35 6.67 3.7 6.34 2 6 C1.34 4.02 0.68 2.04 0 0 Z " fill="#D8BD16" transform="translate(111,34)"/>
<path d="M0 0 C0.66 1.32 1.32 2.64 2 4 C1.360625 4.28875 0.72125 4.5775 0.0625 4.875 C-2.15206079 5.82823451 -2.15206079 5.82823451 -3 8 C-5.43359375 8.703125 -5.43359375 8.703125 -8.4375 9.25 C-9.92056641 9.53617188 -9.92056641 9.53617188 -11.43359375 9.828125 C-12.70396484 9.91320312 -12.70396484 9.91320312 -14 10 C-14.66 9.34 -15.32 8.68 -16 8 C-15.625 5.375 -15.625 5.375 -15 3 C-13.44033782 2.491217 -11.87710759 1.99336531 -10.3125 1.5 C-9.44238281 1.2215625 -8.57226562 0.943125 -7.67578125 0.65625 C-5.00608323 0.00149195 -2.73603316 -0.11831495 0 0 Z " fill="#506C35" transform="translate(50,59)"/>
<path d="M0 0 C3.01129759 2.36020622 4.45564371 4.18950597 5 8 C0.94020228 8.98419339 -2.82699392 9.23183367 -7 9 C-7.99 8.34 -8.98 7.68 -10 7 C-10.4375 4.5625 -10.4375 4.5625 -10 2 C-6.89848947 -1.57866599 -4.34747391 -1.3585856 0 0 Z " fill="#D2EAEE" transform="translate(190,50)"/>
<path d="M0 0 C0 2.97 0 5.94 0 9 C-6.625 12 -6.625 12 -10 12 C-10.66 8.7 -11.32 5.4 -12 2 C-10.7625 1.67 -9.525 1.34 -8.25 1 C-7.55390625 0.814375 -6.8578125 0.62875 -6.140625 0.4375 C-4 0 -4 0 0 0 Z " fill="#CFBB1C" transform="translate(110,76)"/>
<path d="M0 0 C0.66 0 1.32 0 2 0 C2.33 1.32 2.66 2.64 3 4 C4.65 4.33 6.3 4.66 8 5 C8 5.66 8 6.32 8 7 C7.01 7.33 6.02 7.66 5 8 C4.67 9.98 4.34 11.96 4 14 C2.6078125 13.505 2.6078125 13.505 1.1875 13 C-1.92029291 11.85032996 -1.92029291 11.85032996 -5 12 C-5.144375 10.88625 -5.28875 9.7725 -5.4375 8.625 C-5.78372035 5.17857953 -5.78372035 5.17857953 -7 3 C-5.5459375 2.814375 -5.5459375 2.814375 -4.0625 2.625 C-2.5465625 2.315625 -2.5465625 2.315625 -1 2 C-0.67 1.34 -0.34 0.68 0 0 Z " fill="#587923" transform="translate(130,43)"/>
<path d="M0 0 C0.99 0 1.98 0 3 0 C1.14050431 6.06526606 -1.51487692 11.70703403 -4.16601562 17.45507812 C-5.90221182 21.28369561 -7.44919225 24.78843917 -8 29 C-8.99 29.33 -9.98 29.66 -11 30 C-10.855625 29.29875 -10.71125 28.5975 -10.5625 27.875 C-10.376875 26.92625 -10.19125 25.9775 -10 25 C-9.79375 23.96875 -9.5875 22.9375 -9.375 21.875 C-8.77902292 18.93580872 -8.77902292 18.93580872 -10 16 C-9.0625 12.8125 -9.0625 12.8125 -8 10 C-6.35 9.67 -4.7 9.34 -3 9 C-2.67 7.68 -2.34 6.36 -2 5 C-1.34 5 -0.68 5 0 5 C0 3.35 0 1.7 0 0 Z " fill="#E8BD0E" transform="translate(155,61)"/>
<path d="M0 0 C-1.32 0.33 -2.64 0.66 -4 1 C-4 1.99 -4 2.98 -4 4 C-1.36 4 1.28 4 4 4 C0.96474514 6.02350324 -0.19426202 6.32124018 -3.6875 6.625 C-4.49574219 6.69976562 -5.30398437 6.77453125 -6.13671875 6.8515625 C-7.05904297 6.92503906 -7.05904297 6.92503906 -8 7 C-8 5.68 -8 4.36 -8 3 C-8.61875 3.309375 -9.2375 3.61875 -9.875 3.9375 C-13.58872652 5.79436326 -15.80843858 6 -20 6 C-20.33 6.33 -20.66 6.66 -21 7 C-22.84891946 7.23363881 -24.70488031 7.41303635 -26.5625 7.5625 C-28.08037109 7.68818359 -28.08037109 7.68818359 -29.62890625 7.81640625 C-30.41136719 7.87699219 -31.19382813 7.93757813 -32 8 C-32.33 6.68 -32.66 5.36 -33 4 C-32.07574219 4.226875 -31.15148438 4.45375 -30.19921875 4.6875 C-24.79397662 5.46026052 -19.93358793 3.57467515 -14.8125 2 C-12.86337025 1.40773006 -10.91161415 0.82401755 -8.95703125 0.25 C-7.67276245 -0.14445312 -7.67276245 -0.14445312 -6.36254883 -0.546875 C-3.85332978 -1.02813061 -2.39359548 -0.81872513 0 0 Z " fill="#647A19" transform="translate(86,62)"/>
<path d="M0 0 C0.391875 0.474375 0.78375 0.94875 1.1875 1.4375 C3.40808374 3.35179633 5.13375709 3.61266988 8 4 C7.125 11.75 7.125 11.75 6 14 C5.236875 13.814375 4.47375 13.62875 3.6875 13.4375 C0.91032625 12.77180827 0.91032625 12.77180827 -2 14 C-2 12.35 -2 10.7 -2 9 C-3.32 8.34 -4.64 7.68 -6 7 C-3 5 -3 5 -1 5 C-0.67 3.35 -0.34 1.7 0 0 Z " fill="#62781C" transform="translate(89,42)"/>
<path d="M0 0 C4.91902721 4.45054843 6.33239005 8.53854779 6.69140625 15.01171875 C6.83517264 17.22870058 6.83517264 17.22870058 9 19 C11.65537372 19.56520003 14.29144713 19.73788198 17 20 C17 20.99 17 21.98 17 23 C14.69 23.33 12.38 23.66 10 24 C9.91903197 25.45742463 9.86082226 26.91612807 9.8125 28.375 C9.77769531 29.18710938 9.74289063 29.99921875 9.70703125 30.8359375 C9.80371094 31.55007812 9.90039062 32.26421875 10 33 C13.24633524 35.1642235 14.24301443 35.37569856 18 35 C18.99 34.34 19.98 33.68 21 33 C20.34 34.32 19.68 35.64 19 37 C14.39790775 37.17700355 12.21629134 37.10814567 8 35 C8 31.04 8 27.08 8 23 C8.99 23 9.98 23 11 23 C11 22.34 11 21.68 11 21 C10.071875 20.7834375 10.071875 20.7834375 9.125 20.5625 C7 20 7 20 5 19 C4.38713464 16.04008728 4.04044559 13.07613413 3.66015625 10.078125 C2.96468688 6.83534472 1.7760613 4.76813914 0 2 C0 1.34 0 0.68 0 0 Z " fill="#CEBA1B" transform="translate(63,95)"/>
<path d="M0 0 C0.66 0 1.32 0 2 0 C1.67 1.32 1.34 2.64 1 4 C0.34 4 -0.32 4 -1 4 C-0.67 5.65 -0.34 7.3 0 9 C2.31 9 4.62 9 7 9 C3.89576443 10.68054361 0.83501066 11.73989499 -2.5625 12.6875 C-3.51253906 12.95949219 -4.46257812 13.23148438 -5.44140625 13.51171875 C-8 14 -8 14 -11 13 C-13 11 -13 11 -13.125 7.375 C-13.08375 6.26125 -13.0425 5.1475 -13 4 C-12.01 4.33 -11.02 4.66 -10 5 C-10 6.65 -10 8.3 -10 10 C-9.01 9.34 -8.02 8.68 -7 8 C-4.3125 8.375 -4.3125 8.375 -2 9 C-2.04125 8.071875 -2.0825 7.14375 -2.125 6.1875 C-2 3 -2 3 0 0 Z " fill="#CDB81A" transform="translate(97,46)"/>
<path d="M0 0 C0.93328125 0.07476562 1.8665625 0.14953125 2.828125 0.2265625 C1.871544 1.99834303 0.91279512 3.76895326 -0.046875 5.5390625 C-0.58054688 6.52519531 -1.11421875 7.51132813 -1.6640625 8.52734375 C-3.171875 11.2265625 -3.171875 11.2265625 -5.171875 14.2265625 C-7.796875 14.4140625 -7.796875 14.4140625 -10.171875 14.2265625 C-9.15558774 10.53097247 -7.77253774 7.19584693 -5.921875 3.8515625 C-5.54546875 3.16320312 -5.1690625 2.47484375 -4.78125 1.765625 C-3.171875 0.2265625 -3.171875 0.2265625 0 0 Z " fill="#DBBB36" transform="translate(180.171875,122.7734375)"/>
<path d="M0 0 C3 1 3 1 4.625 3.125 C6.20938865 6.43781262 6.64339286 9.36260716 7 13 C3.44219804 12.39009109 0.3171411 11.4216319 -3 10 C-2.69201674 8.51988629 -2.378482 7.04092675 -2.0625 5.5625 C-1.88847656 4.73878906 -1.71445313 3.91507812 -1.53515625 3.06640625 C-1 1 -1 1 0 0 Z " fill="#534112" transform="translate(184,63)"/>
<path d="M0 0 C0.66 0 1.32 0 2 0 C2.35214394 3.69751137 2.05367044 5.87632463 0.5625 9.3125 C-2.57837153 12.60658477 -4.39328443 12.8268453 -8.78125 13.1875 C-11.27309211 12.97692179 -12.85355089 12.24884312 -15 11 C-13.35 11 -11.7 11 -10 11 C-9.67 10.01 -9.34 9.02 -9 8 C-8.236875 7.731875 -7.47375 7.46375 -6.6875 7.1875 C-3.10225212 5.6033207 -2.05163493 3.25431748 0 0 Z " fill="#E1C027" transform="translate(170,125)"/>
<path d="M0 0 C4.09012272 2.72674848 5.54176057 4.98374652 6.625 9.75 C6.74875 10.4925 6.8725 11.235 7 12 C6.01 12 5.02 12 4 12 C3.67 10.68 3.34 9.36 3 8 C2.01 8.495 2.01 8.495 1 9 C1.33 10.98 1.66 12.96 2 15 C1.01 15.495 1.01 15.495 0 16 C-1.65 13.03 -3.3 10.06 -5 7 C-3.35 6.67 -1.7 6.34 0 6 C-0.66 5.01 -1.32 4.02 -2 3 C-1.34 2.67 -0.68 2.34 0 2 C0 1.34 0 0.68 0 0 Z " fill="#AEB296" transform="translate(194,55)"/>
<path d="M0 0 C0.33 3.63 0.66 7.26 1 11 C-3.1196377 12.29243536 -6.66831683 13.26252625 -11 13 C-11 12.34 -11 11.68 -11 11 C-7.7 10.67 -4.4 10.34 -1 10 C-1 7.69 -1 5.38 -1 3 C-4.3 3.33 -7.6 3.66 -11 4 C-11 5.98 -11 7.96 -11 10 C-13 7 -13 7 -13 3 C-11.58603098 2.49242138 -10.16868271 1.99425075 -8.75 1.5 C-7.96109375 1.2215625 -7.1721875 0.943125 -6.359375 0.65625 C-4 0 -4 0 0 0 Z " fill="#D4BE1E" transform="translate(108,62)"/>
<path d="M0 0 C2.31 0.66 4.62 1.32 7 2 C6.01 2.33 5.02 2.66 4 3 C4 4.98 4 6.96 4 9 C1.36 9.33 -1.28 9.66 -4 10 C-3.979375 9.236875 -3.95875 8.47375 -3.9375 7.6875 C-3.87057159 4.89814214 -3.87057159 4.89814214 -5 2 C-4.360625 1.855625 -3.72125 1.71125 -3.0625 1.5625 C-1.02454854 1.18992819 -1.02454854 1.18992819 0 0 Z " fill="#4F772D" transform="translate(110,39)"/>
<path d="M0 0 C4.54159191 4.54159191 6.47273964 10.89095856 8 17 C7.01 17.33 6.02 17.66 5 18 C5 17.01 5 16.02 5 15 C4.34 15 3.68 15 3 15 C3 13.02 3 11.04 3 9 C1.68 9 0.36 9 -1 9 C-1.66 7.02 -2.32 5.04 -3 3 C-2.01 2.01 -1.02 1.02 0 0 Z " fill="#4F772E" transform="translate(56,71)"/>
<path d="M0 0 C2.13586678 3.20380017 2.23132175 4.01939967 2.125 7.6875 C2.10695313 8.49574219 2.08890625 9.30398437 2.0703125 10.13671875 C2.03550781 11.05904297 2.03550781 11.05904297 2 12 C-0.35953094 9.64046906 -0.49141413 8.22104383 -1 5 C-1.33 5.33 -1.66 5.66 -2 6 C-3.66617115 6.04063832 -5.33388095 6.042721 -7 6 C-7 5.34 -7 4.68 -7 4 C-9.97 3.505 -9.97 3.505 -13 3 C-8.71955473 0.70690432 -4.90496348 -0.51631195 0 0 Z " fill="#637A1B" transform="translate(113,54)"/>
<path d="M0 0 C0 0.99 0 1.98 0 3 C-0.66 3 -1.32 3 -2 3 C-2 4.98 -2 6.96 -2 9 C-3.32 9 -4.64 9 -6 9 C-6 8.34 -6 7.68 -6 7 C-6.66 7 -7.32 7 -8 7 C-7.74438677 4.6568787 -7.40729228 2.32156597 -7 0 C-4.3333581 -1.33332095 -2.83319697 -0.67102033 0 0 Z " fill="#4F772E" transform="translate(118,110)"/>
<path d="M0 0 C1.32 0 2.64 0 4 0 C4.33 1.98 4.66 3.96 5 6 C4.34 6 3.68 6 3 6 C3 8.31 3 10.62 3 13 C-0.0244984 13.65272294 -2.90016549 14.13871893 -6 14 C-8.5625 11.6875 -8.5625 11.6875 -10 9 C-10 8.34 -10 7.68 -10 7 C-10.66 7 -11.32 7 -12 7 C-11.67 5.68 -11.34 4.36 -11 3 C-9.02 5.97 -7.04 8.94 -5 12 C-1.535 11.505 -1.535 11.505 2 11 C1.34 7.37 0.68 3.74 0 0 Z " fill="#657A13" transform="translate(79,86)"/>
<path d="M0 0 C1.98 0 3.96 0 6 0 C5.01 0.495 5.01 0.495 4 1 C4 1.66 4 2.32 4 3 C6.31 2.34 8.62 1.68 11 1 C11.95261487 5.76307437 12.08333357 10.1666528 12 15 C11.01 14.67 10.02 14.34 9 14 C8.67 10.7 8.34 7.4 8 4 C7.0925 4.04125 6.185 4.0825 5.25 4.125 C2.1217954 4.00468444 0.61385994 3.6085292 -2 2 C-1.34 2 -0.68 2 0 2 C0 1.34 0 0.68 0 0 Z " fill="#4F772C" transform="translate(102,57)"/>
<path d="M0 0 C0.78375 0.04125 1.5675 0.0825 2.375 0.125 C3.035 2.105 3.695 4.085 4.375 6.125 C3.385 6.455 2.395 6.785 1.375 7.125 C1.375 7.785 1.375 8.445 1.375 9.125 C0.055 9.125 -1.265 9.125 -2.625 9.125 C-3.285 6.815 -3.945 4.505 -4.625 2.125 C-2.625 0.125 -2.625 0.125 0 0 Z " fill="#F6EF5B" transform="translate(205.625,54.875)"/>
<path d="M0 0 C0.33 0.66 0.66 1.32 1 2 C6.445 1.01 6.445 1.01 12 0 C11.01 1.485 11.01 1.485 10 3 C11.65 3.33 13.3 3.66 15 4 C13.66666667 4.66666667 12.33333333 5.33333333 11 6 C10.13375 6.556875 10.13375 6.556875 9.25 7.125 C5.81301605 8.46160487 2.67145533 8.12238184 -1 8 C-1 7.67 -1 7.34 -1 7 C1.31 7 3.62 7 6 7 C6 6.34 6 5.68 6 5 C3.03 4.505 3.03 4.505 0 4 C0 2.68 0 1.36 0 0 Z " fill="#6B7D17" transform="translate(73,107)"/>
<path d="M0 0 C1.60355101 3.50776784 2.22036864 6.14354879 2 10 C0.02 10.33 -1.96 10.66 -4 11 C-3.01 10.67 -2.02 10.34 -1 10 C-1 7.36 -1 4.72 -1 2 C-2.79458945 2.22807491 -4.58575449 2.48322303 -6.375 2.75 C-7.37273437 2.88921875 -8.37046875 3.0284375 -9.3984375 3.171875 C-12.14561047 3.74386889 -12.14561047 3.74386889 -13.3515625 6.078125 C-13.56554688 6.71234375 -13.77953125 7.3465625 -14 8 C-14.33 6.35 -14.66 4.7 -15 3 C-13.0636296 2.49564306 -11.12585854 1.99666126 -9.1875 1.5 C-8.10855469 1.2215625 -7.02960938 0.943125 -5.91796875 0.65625 C-3 0 -3 0 0 0 Z " fill="#D6BE1A" transform="translate(75,71)"/>
<path d="M0 0 C2.375 2.5625 2.375 2.5625 4 5 C2.35 5.66 0.7 6.32 -1 7 C-1.5775 6.34 -2.155 5.68 -2.75 5 C-4.99653977 2.55709077 -4.99653977 2.55709077 -9 3 C-9.33 4.32 -9.66 5.64 -10 7 C-10.25 4.6875 -10.25 4.6875 -10 2 C-6.91047944 -1.56483142 -4.32365427 -1.44121809 0 0 Z " fill="#C9DADF" transform="translate(190,50)"/>
<path d="M0 0 C1.2065625 0.0309375 1.2065625 0.0309375 2.4375 0.0625 C2.4375 1.0525 2.4375 2.0425 2.4375 3.0625 C-3.27985105 5.51279331 -7.35279227 6.39516291 -13.5625 6.0625 C-12.5 4.125 -12.5 4.125 -10.5625 2.0625 C-6.9375 1.375 -6.9375 1.375 -3.5625 1.0625 C-2.5625 0.0625 -2.5625 0.0625 0 0 Z " fill="#577625" transform="translate(95.5625,104.9375)"/>
<path d="M0 0 C0.99 0 1.98 0 3 0 C3 2.97 3 5.94 3 9 C4.65 9.33 6.3 9.66 8 10 C7.67 10.99 7.34 11.98 7 13 C5.68 13 4.36 13 3 13 C1.22590192 14.92022703 1.22590192 14.92022703 0 17 C-0.66 16.67 -1.32 16.34 -2 16 C-1.34 15.34 -0.68 14.68 0 14 C-0.01720786 10.89768731 -0.01720786 10.89768731 -0.4375 7.4375 C-0.66042668 5.29505732 -0.85671742 3.14923871 -1 1 C-0.67 0.67 -0.34 0.34 0 0 Z " fill="#878043" transform="translate(209,51)"/>
<path d="M0 0 C0.99 0.33 1.98 0.66 3 1 C1.60709973 5.1787008 -0.60916701 6.28675231 -4.4375 8.25 C-7.37227162 9.10895755 -9.09158259 8.8309764 -12 8 C-11.67 7.01 -11.34 6.02 -11 5 C-8.69 5 -6.38 5 -4 5 C-4 4.34 -4 3.68 -4 3 C-2.1875 1.3125 -2.1875 1.3125 0 0 Z " fill="#4F772F" transform="translate(98,90)"/>
<path d="M0 0 C0.38133299 1.9914056 0.71325582 3.99279077 1 6 C0 7 0 7 -3.5625 7.0625 C-4.696875 7.041875 -5.83125 7.02125 -7 7 C-7 5.02 -7 3.04 -7 1 C-4 0 -4 0 0 0 Z " fill="#ECBE04" transform="translate(108,78)"/>
<path d="M0 0 C1.32 0.33 2.64 0.66 4 1 C2.74210557 3.17517137 1.46994813 5.3393781 0.1875 7.5 C-0.16892578 8.12003906 -0.52535156 8.74007812 -0.89257812 9.37890625 C-1.84631767 10.9713888 -2.91697393 12.49246084 -4 14 C-4.99 14 -5.98 14 -7 14 C-5.23570801 9.02790438 -2.6060834 4.56561939 0 0 Z " fill="#D7BB46" transform="translate(184,123)"/>
<path d="M0 0 C1.65 0 3.3 0 5 0 C4.67 0.99 4.34 1.98 4 3 C13.57 3.33 23.14 3.66 33 4 C33 4.33 33 4.66 33 5 C22.11 5 11.22 5 0 5 C0 3.35 0 1.7 0 0 Z " fill="#E3BE1D" transform="translate(126,120)"/>
<path d="M0 0 C-1.98 0.99 -1.98 0.99 -4 2 C-1.36 2 1.28 2 4 2 C0.55549263 4.29633824 -1.93812283 4.54016485 -6 5 C-6 4.34 -6 3.68 -6 3 C-7.2684375 3.495 -7.2684375 3.495 -8.5625 4 C-12.20989216 5.06105954 -15.22274664 5.15109013 -19 5 C-16.01243632 3.00829088 -13.44575614 1.97092021 -10.0625 0.8125 C-9.02222656 0.44769531 -7.98195313 0.08289063 -6.91015625 -0.29296875 C-4.04543948 -0.98896034 -2.71018643 -1.02529944 0 0 Z " fill="#677A13" transform="translate(104,102)"/>
<path d="M0 0 C-0.33 0.66 -0.66 1.32 -1 2 C-2.65 2 -4.3 2 -6 2 C-7.15941038 5.47823115 -6.70820884 7.45895578 -6 11 C-9.42447685 9.85850772 -10.3358761 9.15307687 -12 6 C-10.30573022 -1.11593309 -6.49453104 -1.22538321 0 0 Z " fill="#DBD465" transform="translate(209,54)"/>
<path d="M0 0 C0.66 0 1.32 0 2 0 C2.33 1.32 2.66 2.64 3 4 C4.65 4.33 6.3 4.66 8 5 C8 5.66 8 6.32 8 7 C7.01 7 6.02 7 5 7 C5 6.34 5 5.68 5 5 C1.41672247 3.99782936 1.41672247 3.99782936 -2 5 C-2.65555119 7.52733235 -2.65555119 7.52733235 -3 10 C-2.01 10.33 -1.02 10.66 0 11 C-1.65 11.33 -3.3 11.66 -5 12 C-5.144375 10.88625 -5.28875 9.7725 -5.4375 8.625 C-5.78372035 5.17857953 -5.78372035 5.17857953 -7 3 C-5.5459375 2.814375 -5.5459375 2.814375 -4.0625 2.625 C-2.5465625 2.315625 -2.5465625 2.315625 -1 2 C-0.67 1.34 -0.34 0.68 0 0 Z " fill="#747E0D" transform="translate(130,43)"/>
<path d="M0 0 C-0.99 0.33 -1.98 0.66 -3 1 C-3.73323796 3.01508358 -3.73323796 3.01508358 -4 5 C-2.68 5 -1.36 5 0 5 C0.33 5.66 0.66 6.32 1 7 C3.01669827 8.13350534 3.01669827 8.13350534 5 9 C1.19495213 10.79682816 0.29399165 11.07349791 -4 10 C-4.66 6.7 -5.32 3.4 -6 0 C-3.50907189 -1.24546405 -2.58919267 -0.7767578 0 0 Z " fill="#DABD17" transform="translate(88,83)"/>
<path d="M0 0 C1.65 0.33 3.3 0.66 5 1 C6.83108532 7.00135816 4.76687008 10.60036083 2.0625 15.875 C1.67642578 16.65875 1.29035156 17.4425 0.89257812 18.25 C-0.05753464 20.17368511 -1.0268883 22.08784616 -2 24 C-2.33 24 -2.66 24 -3 24 C-3 22.35 -3 20.7 -3 19 C-2.34 19 -1.68 19 -1 19 C-0.34 16.03 0.32 13.06 1 10 C1.66 10 2.32 10 3 10 C3.33 8.02 3.66 6.04 4 4 C3.34 4 2.68 4 2 4 C2 3.34 2 2.68 2 2 C1.34 1.34 0.68 0.68 0 0 Z " fill="#DCBD30" transform="translate(164,30)"/>
<path d="M0 0 C0 0.99 0 1.98 0 3 C-0.66 3 -1.32 3 -2 3 C-2.33 4.98 -2.66 6.96 -3 9 C-4.98 7.35 -6.96 5.7 -9 4 C-8 1 -8 1 -6.1875 -0.25 C-3.66056586 -1.11637742 -2.47778006 -0.88492145 0 0 Z " fill="#DEBB0D" transform="translate(88,113)"/>
<path d="M0 0 C0 1.65 0 3.3 0 5 C-0.99 5.495 -0.99 5.495 -2 6 C-1.67 7.32 -1.34 8.64 -1 10 C-2.98 9.34 -4.96 8.68 -7 8 C-7.3125 5.6875 -7.3125 5.6875 -7 3 C-4.6167054 1.18116991 -3.04181663 0 0 0 Z " fill="#D2ECF3" transform="translate(201,73)"/>
<path d="M0 0 C0.33 1.98 0.66 3.96 1 6 C-1.97 6 -4.94 6 -8 6 C-8.33 4.68 -8.66 3.36 -9 2 C-3.375 0 -3.375 0 0 0 Z " fill="#50772E" transform="translate(46,61)"/>
<path d="M0 0 C-1.98 0.99 -1.98 0.99 -4 2 C-1.36 2.33 1.28 2.66 4 3 C3.67 3.66 3.34 4.32 3 5 C2.071875 4.979375 1.14375 4.95875 0.1875 4.9375 C-3.02286011 4.84230396 -3.02286011 4.84230396 -6 6 C-6 5.01 -6 4.02 -6 3 C-9.63 3.33 -13.26 3.66 -17 4 C-14.12952608 2.56476304 -11.50182195 1.36622175 -8.5 0.3125 C-7.7471875 0.04050781 -6.994375 -0.23148437 -6.21875 -0.51171875 C-3.76402507 -1.0519311 -2.35576662 -0.79774824 0 0 Z " fill="#D2BA1A" transform="translate(115,104)"/>
<path d="M0 0 C0.99 0.99 1.98 1.98 3 3 C2.67 3.66 2.34 4.32 2 5 C1.67 4.67 1.34 4.34 1 4 C0.67 4.99 0.34 5.98 0 7 C-0.66 7 -1.32 7 -2 7 C-0.68 8.65 0.64 10.3 2 12 C1.34 12.66 0.68 13.32 0 14 C-0.99 13.67 -1.98 13.34 -3 13 C-3.99 13.33 -4.98 13.66 -6 14 C-4.50829734 9.0276578 -2.39542583 4.58154261 0 0 Z " fill="#DDBC1E" transform="translate(49,72)"/>
<path d="M0 0 C2.875 -0.125 2.875 -0.125 6 0 C8 2 8 2 8.125 5.125 C8.08375 6.07375 8.0425 7.0225 8 8 C7.01 8.33 6.02 8.66 5 9 C4.731875 8.401875 4.46375 7.80375 4.1875 7.1875 C3.1106021 4.95672092 3.1106021 4.95672092 1.375 3.375 C0.92125 2.92125 0.4675 2.4675 0 2 C0 1.34 0 0.68 0 0 Z " fill="#4E782D" transform="translate(75,120)"/>
<path d="M0 0 C1.65 0 3.3 0 5 0 C4.67 1.65 4.34 3.3 4 5 C0.7 5.33 -2.6 5.66 -6 6 C-6.33 5.34 -6.66 4.68 -7 4 C-4.35261084 2.5393715 -3.10551666 2 0 2 C0 1.34 0 0.68 0 0 Z " fill="#E6C008" transform="translate(108,93)"/>
<path d="M0 0 C1.65 0.33 3.3 0.66 5 1 C5 3.97 5 6.94 5 10 C4.01 9.67 3.02 9.34 2 9 C1.67 10.32 1.34 11.64 1 13 C0.83147753 11.39602723 0.66525114 9.7918131 0.5 8.1875 C0.4071875 7.29417969 0.314375 6.40085937 0.21875 5.48046875 C0 3 0 3 0 0 Z " fill="#4F772D" transform="translate(110,73)"/>
<path d="M0 0 C0.66 0 1.32 0 2 0 C1.67 1.32 1.34 2.64 1 4 C0.34 4 -0.32 4 -1 4 C-0.67 5.65 -0.34 7.3 0 9 C2.31 9 4.62 9 7 9 C3.88089144 10.79275866 1.32317572 11.34290718 -2.25 11.625 C-3.14203125 11.69976562 -4.0340625 11.77453125 -4.953125 11.8515625 C-5.62859375 11.90054688 -6.3040625 11.94953125 -7 12 C-7 11.34 -7 10.68 -7 10 C-5.02 10 -3.04 10 -1 10 C-1.20625 8.906875 -1.4125 7.81375 -1.625 6.6875 C-2 3 -2 3 0 0 Z " fill="#D9BE17" transform="translate(97,46)"/>
<path d="M0 0 C-0.33 1.32 -0.66 2.64 -1 4 C-1.99 4 -2.98 4 -4 4 C-4.66 6.31 -5.32 8.62 -6 11 C-6.66 11 -7.32 11 -8 11 C-8.144375 11.78375 -8.28875 12.5675 -8.4375 13.375 C-9 16 -9 16 -10 18 C-10.66 18 -11.32 18 -12 18 C-10.3523657 11.90375311 -7.34188389 6.33066806 -4 1 C-2 0 -2 0 0 0 Z " fill="#DBBE2F" transform="translate(72,31)"/>
<path d="M0 0 C0.66 0 1.32 0 2 0 C2.33 1.65 2.66 3.3 3 5 C5.31 5 7.62 5 10 5 C10 6.32 10 7.64 10 9 C9.525625 9.433125 9.05125 9.86625 8.5625 10.3125 C6.18320718 12.88213625 6.31980158 15.61010321 6 19 C5.34 18.67 4.68 18.34 4 18 C3.63076923 11.6 3.63076923 11.6 5.5 8.5625 C5.995 8.046875 6.49 7.53125 7 7 C5.35 6.67 3.7 6.34 2 6 C1.34 4.02 0.68 2.04 0 0 Z " fill="#CAB618" transform="translate(111,34)"/>
<path d="M0 0 C1.65 0.33 3.3 0.66 5 1 C4.67 1.99 4.34 2.98 4 4 C4 3.34 4 2.68 4 2 C3.25234375 2.2165625 2.5046875 2.433125 1.734375 2.65625 C0.25710937 3.07390625 0.25710937 3.07390625 -1.25 3.5 C-2.22453125 3.7784375 -3.1990625 4.056875 -4.203125 4.34375 C-7 5 -7 5 -11 5 C-10.67 6.65 -10.34 8.3 -10 10 C-11.5 8.75 -11.5 8.75 -13 7 C-13 5.68 -13 4.36 -13 3 C-11.7934375 3.0309375 -11.7934375 3.0309375 -10.5625 3.0625 C-8.06645115 3.29633621 -8.06645115 3.29633621 -7 2 C-4.66702567 1.95907063 -2.33294775 1.95758277 0 2 C0 1.34 0 0.68 0 0 Z " fill="#6B7C17" transform="translate(71,69)"/>
<path d="M0 0 C0.99 0.495 0.99 0.495 2 1 C4.27726179 0.95246702 6.53665834 0.8054756 8.80859375 0.64453125 C11 1 11 1 12.78515625 3.01171875 C13.18605469 3.66785156 13.58695313 4.32398438 14 5 C12.23303157 5.27599507 10.46103785 5.51996915 8.6875 5.75 C7.70136719 5.88921875 6.71523437 6.0284375 5.69921875 6.171875 C3 6 3 6 1.14453125 4.140625 C0 2 0 2 0 0 Z " fill="#C1CFBC" transform="translate(181,57)"/>
<path d="M0 0 C1.65 0 3.3 0 5 0 C4.125 7.75 4.125 7.75 3 10 C2.236875 9.814375 1.47375 9.62875 0.6875 9.4375 C-2.08967375 8.77180827 -2.08967375 8.77180827 -5 10 C-5 8.35 -5 6.7 -5 5 C-4.34 5 -3.68 5 -3 5 C-3 5.66 -3 6.32 -3 7 C-1.68 7 -0.36 7 1 7 C1.15149298 3.37114676 1.15149298 3.37114676 0 0 Z " fill="#657411" transform="translate(92,46)"/>
<path d="M0 0 C0.12375 0.804375 0.2475 1.60875 0.375 2.4375 C0.58125 3.283125 0.7875 4.12875 1 5 C1.66 5.33 2.32 5.66 3 6 C-1.55384615 6.36923077 -1.55384615 6.36923077 -3.8125 4.5 C-4.4003125 3.7575 -4.4003125 3.7575 -5 3 C-5.33 4.32 -5.66 5.64 -6 7 C-7.32 7.33 -8.64 7.66 -10 8 C-9.67 7.01 -9.34 6.02 -9 5 C-8.34 5 -7.68 5 -7 5 C-6.87625 4.360625 -6.7525 3.72125 -6.625 3.0625 C-6.41875 2.381875 -6.2125 1.70125 -6 1 C-4 0 -4 0 0 0 Z " fill="#D7BB11" transform="translate(94,40)"/>
<path d="M0 0 C0.33 0.66 0.66 1.32 1 2 C1.66 2 2.32 2 3 2 C2.6875 3.9375 2.6875 3.9375 2 6 C1.01 6.33 0.02 6.66 -1 7 C-0.67 7.66 -0.34 8.32 0 9 C-0.33 9.66 -0.66 10.32 -1 11 C-1.99 11 -2.98 11 -4 11 C-3.71890887 9.35232753 -3.42481474 7.70686855 -3.125 6.0625 C-2.96257812 5.14597656 -2.80015625 4.22945313 -2.6328125 3.28515625 C-2.42398438 2.53105469 -2.21515625 1.77695313 -2 1 C-1.34 0.67 -0.68 0.34 0 0 Z " fill="#9C8C3A" transform="translate(135,109)"/>
<path d="M0 0 C0 0.66 0 1.32 0 2 C-1.98 2.99 -3.96 3.98 -6 5 C-4.68 5.66 -3.36 6.32 -2 7 C-6.95 8.485 -6.95 8.485 -12 10 C-12 9.34 -12 8.68 -12 8 C-10.68 7.67 -9.36 7.34 -8 7 C-8.33 5.68 -8.66 4.36 -9 3 C-2.25 0 -2.25 0 0 0 Z " fill="#D0B817" transform="translate(108,93)"/>
<path d="M0 0 C0.66 0 1.32 0 2 0 C0.23570801 4.97209562 -2.3939166 9.43438061 -5 14 C-5.99 13.67 -6.98 13.34 -8 13 C-6.716961 10.82778513 -5.42427887 8.6624676 -4.125 6.5 C-3.76019531 5.87996094 -3.39539063 5.25992188 -3.01953125 4.62109375 C-2.0677482 3.04632542 -1.03889741 1.51870947 0 0 Z " fill="#CBB75D" transform="translate(190,123)"/>
<path d="M0 0 C5.28 0 10.56 0 16 0 C15.01 1.98 14.02 3.96 13 6 C12.67 4.68 12.34 3.36 12 2 C10.02 2.33 8.04 2.66 6 3 C6 2.34 6 1.68 6 1 C4.02 1 2.04 1 0 1 C0 0.67 0 0.34 0 0 Z " fill="#D9BC45" transform="translate(160,123)"/>
<path d="M0 0 C-0.721875 0.226875 -1.44375 0.45375 -2.1875 0.6875 C-5.53209313 2.24831013 -7.51603959 4.3031287 -10 7 C-10.66 6.67 -11.32 6.34 -12 6 C-11.34 5.34 -10.68 4.68 -10 4 C-11.32 3.34 -12.64 2.68 -14 2 C-12.42085985 1.46658816 -10.83645613 0.94874237 -9.25 0.4375 C-8.36828125 0.14746094 -7.4865625 -0.14257812 -6.578125 -0.44140625 C-3.92165684 -1.01697435 -2.52968894 -0.89248371 0 0 Z " fill="#687C1A" transform="translate(100,58)"/>
<path d="M0 0 C2.64 0 5.28 0 8 0 C7.67 0.99 7.34 1.98 7 3 C7.66 3 8.32 3 9 3 C9.33 3.99 9.66 4.98 10 6 C6.39647872 6 4.98599212 4.91409751 2 3 C1.34 2.67 0.68 2.34 0 2 C0 1.34 0 0.68 0 0 Z " fill="#69696B" transform="translate(162,82)"/>
<path d="M0 0 C0.33 0 0.66 0 1 0 C1.33 1.65 1.66 3.3 2 5 C2.33 4.67 2.66 4.34 3 4 C4.68608966 3.92794489 6.37500659 3.91613932 8.0625 3.9375 C8.98160156 3.94652344 9.90070312 3.95554687 10.84765625 3.96484375 C11.55792969 3.97644531 12.26820312 3.98804687 13 4 C10.04230603 5.97179598 8.83582038 6.36929854 5.4375 6.75 C4.65246094 6.84796875 3.86742187 6.9459375 3.05859375 7.046875 C1 7 1 7 -1 5 C-0.625 2.375 -0.625 2.375 0 0 Z " fill="#D7BB1E" transform="translate(54,61)"/>
<path d="M0 0 C0.66 0 1.32 0 2 0 C1.67 1.65 1.34 3.3 1 5 C0.34 5 -0.32 5 -1 5 C-1 5.66 -1 6.32 -1 7 C-1.66 7 -2.32 7 -3 7 C-3 7.99 -3 8.98 -3 10 C-3.99 10 -4.98 10 -6 10 C-6 7 -6 7 -4.125 5 C-3.42375 4.34 -2.7225 3.68 -2 3 C-1.34 2.01 -0.68 1.02 0 0 Z " fill="#E9BF08" transform="translate(170,125)"/>
<path d="M0 0 C-1.32 0.33 -2.64 0.66 -4 1 C-4 1.66 -4 2.32 -4 3 C-3.01 3.33 -2.02 3.66 -1 4 C-5.455 4.495 -5.455 4.495 -10 5 C-10 4.01 -10 3.02 -10 2 C-8.71211992 1.46987262 -7.41953322 0.9511671 -6.125 0.4375 C-5.40570313 0.14746094 -4.68640625 -0.14257812 -3.9453125 -0.44140625 C-2 -1 -2 -1 0 0 Z " fill="#D1BB1B" transform="translate(84,104)"/>
<path d="M0 0 C0.763125 0.20625 1.52625 0.4125 2.3125 0.625 C2.6425 3.595 2.9725 6.565 3.3125 9.625 C1.9925 9.955 0.6725 10.285 -0.6875 10.625 C-0.0275 10.295 0.6325 9.965 1.3125 9.625 C0.9825 7.315 0.6525 5.005 0.3125 2.625 C-2.6575 2.13 -2.6575 2.13 -5.6875 1.625 C-2.6875 -0.375 -2.6875 -0.375 0 0 Z " fill="#CCB91F" transform="translate(93.6875,80.375)"/>
<path d="M0 0 C-5.44535609 3.38495108 -10.67721029 3.67373505 -17 4 C-17.33 2.68 -17.66 1.36 -18 0 C-16.4840625 0.309375 -16.4840625 0.309375 -14.9375 0.625 C-9.62901318 1.13057017 -5.01807604 -2.00723042 0 0 Z " fill="#6C7D11" transform="translate(71,66)"/>
<path d="M0 0 C0.99 0.33 1.98 0.66 3 1 C1.06382979 7.70212766 1.06382979 7.70212766 -2 10 C-2.66 10 -3.32 10 -4 10 C-3.29445932 6.33118845 -1.72264494 3.29549466 0 0 Z " fill="#E7BD12" transform="translate(177,125)"/>
<path d="M0 0 C0.99 0.33 1.98 0.66 3 1 C2.690625 1.9075 2.38125 2.815 2.0625 3.75 C1.2727737 6.16563338 0.57050703 8.52780285 0 11 C-0.99 11 -1.98 11 -3 11 C-3 9.35 -3 7.7 -3 6 C-2.34 6 -1.68 6 -1 6 C-0.67 4.02 -0.34 2.04 0 0 Z " fill="#A19141" transform="translate(139,98)"/>
<path d="M0 0 C1.32 0 2.64 0 4 0 C4.33 1.98 4.66 3.96 5 6 C4.34 6 3.68 6 3 6 C3 7.98 3 9.96 3 12 C1.68 11.67 0.36 11.34 -1 11 C-0.01 11 0.98 11 2 11 C1.34 7.37 0.68 3.74 0 0 Z " fill="#77810F" transform="translate(79,86)"/>
<path d="M0 0 C1.9375 0.6875 1.9375 0.6875 4 2 C4.75 4.625 4.75 4.625 5 7 C2.03 6.505 2.03 6.505 -1 6 C-0.67 4.02 -0.34 2.04 0 0 Z " fill="#D6D075" transform="translate(182,67)"/>
<path d="M0 0 C0.99 0 1.98 0 3 0 C3.33 1.32 3.66 2.64 4 4 C6.97 4.33 9.94 4.66 13 5 C10.07735566 6.46132217 8.07536854 7.34099246 5 8 C5 7.01 5 6.02 5 5 C4.01 5.33 3.02 5.66 2 6 C1.34 4.02 0.68 2.04 0 0 Z " fill="#C9C381" transform="translate(194,63)"/>
<path d="M0 0 C0.66 0 1.32 0 2 0 C1.67 2.31 1.34 4.62 1 7 C1.66 7 2.32 7 3 7 C3.33 7.66 3.66 8.32 4 9 C6.52733235 9.65555119 6.52733235 9.65555119 9 10 C9 10.33 9 10.66 9 11 C3.375 11.25 3.375 11.25 0 9 C-1.35 2.7 -1.35 2.7 0 0 Z " fill="#707C0F" transform="translate(109,110)"/>
<path d="M0 0 C2.375 0.25 2.375 0.25 5 1 C6.375 2.8125 6.375 2.8125 7 5 C6.625 7.25 6.625 7.25 6 9 C3.75972706 6.11964908 1.83827868 3.15133488 0 0 Z " fill="#524112" transform="translate(189,62)"/>
<path d="M0 0 C1.32 0.33 2.64 0.66 4 1 C3.34 1 2.68 1 2 1 C1.67 1.99 1.34 2.98 1 4 C-0.65 4.33 -2.3 4.66 -4 5 C-3.34 6.65 -2.68 8.3 -2 10 C-3.32 9.34 -4.64 8.68 -6 8 C-6 6.35 -6 4.7 -6 3 C-4.02 3 -2.04 3 0 3 C0 2.01 0 1.02 0 0 Z " fill="#D4BA18" transform="translate(128,42)"/>
<path d="M0 0 C-2.23495428 2.23495428 -4.02414536 3.0024791 -6.9375 4.1875 C-7.81277344 4.55230469 -8.68804687 4.91710937 -9.58984375 5.29296875 C-12 6 -12 6 -15 5 C-13 4 -11 3 -9 2 C-8.319375 1.608125 -7.63875 1.21625 -6.9375 0.8125 C-4.53219003 -0.19617837 -2.58183152 -0.14343508 0 0 Z " fill="#697A12" transform="translate(106,93)"/>
<path d="M0 0 C0.66 0 1.32 0 2 0 C2 0.66 2 1.32 2 2 C3.65 2 5.3 2 7 2 C7 2.66 7 3.32 7 4 C2.56923077 6.09230769 2.56923077 6.09230769 -0.3125 5.625 C-0.869375 5.41875 -1.42625 5.2125 -2 5 C-1.34 4.67 -0.68 4.34 0 4 C0 2.68 0 1.36 0 0 Z " fill="#58761E" transform="translate(94,74)"/>
<path d="M0 0 C-0.33 0.99 -0.66 1.98 -1 3 C-5.455 3.495 -5.455 3.495 -10 4 C-6.2751896 0.2751896 -5.07777425 -0.13362564 0 0 Z " fill="#51762A" transform="translate(109,101)"/>
<path d="M0 0 C0.99 0 1.98 0 3 0 C1.68938409 4.23429756 0.05643741 8.07407404 -2 12 C-2.33 12 -2.66 12 -3 12 C-2.67 9.69 -2.34 7.38 -2 5 C-1.34 5 -0.68 5 0 5 C0 3.35 0 1.7 0 0 Z " fill="#DABC27" transform="translate(155,61)"/>
<path d="M0 0 C0.99 0 1.98 0 3 0 C2.45773019 3.79588866 0.79872437 5.47211993 -2 8 C-2 4.23312136 -1.76462683 3.08809695 0 0 Z " fill="#DCBB34" transform="translate(180,130)"/>
<path d="M0 0 C0.99 0.33 1.98 0.66 3 1 C2.67 2.65 2.34 4.3 2 6 C1.34 6 0.68 6 0 6 C0 7.98 0 9.96 0 12 C-1.4606285 9.35261084 -2 8.10551666 -2 5 C-1.34 5 -0.68 5 0 5 C0 3.35 0 1.7 0 0 Z " fill="#ACB088" transform="translate(193,69)"/>
<path d="M0 0 C0.66 0 1.32 0 2 0 C2.66 1.98 3.32 3.96 4 6 C3.01 6 2.02 6 1 6 C0.34 6.66 -0.32 7.32 -1 8 C-1.66 7.34 -2.32 6.68 -3 6 C-2.34 6 -1.68 6 -1 6 C-0.67 4.02 -0.34 2.04 0 0 Z " fill="#627A17" transform="translate(109,34)"/>
<path d="M0 0 C2.79872437 2.52788007 4.45773019 4.20411134 5 8 C3.35 8 1.7 8 0 8 C0 5.36 0 2.72 0 0 Z " fill="#D4BC13" transform="translate(58,87)"/>
<path d="M0 0 C2 3 2 3 1.75 4.9375 C0.97936717 7.05674028 0.0643413 9.01322958 -1 11 C-1.66 10.34 -2.32 9.68 -3 9 C-2.34 9 -1.68 9 -1 9 C-1.33 6.36 -1.66 3.72 -2 1 C-1.34 0.67 -0.68 0.34 0 0 Z " fill="#737F13" transform="translate(78,72)"/>
<path d="M0 0 C4.03174806 0.27489191 5.56894631 0.53491576 8.375 3.5625 C8.91125 4.366875 9.4475 5.17125 10 6 C8.68 6 7.36 6 6 6 C6 5.34 6 4.68 6 4 C4.35 3.67 2.7 3.34 1 3 C0.67 2.01 0.34 1.02 0 0 Z " fill="#E1C013" transform="translate(132,44)"/>
<path d="M0 0 C0 2.97 0 5.94 0 9 C-0.66 8.67 -1.32 8.34 -2 8 C-2 6.02 -2 4.04 -2 2 C-3.98 2 -5.96 2 -8 2 C-4.91190305 0.23537317 -3.76687864 0 0 0 Z " fill="#BEB220" transform="translate(110,76)"/>
<path d="M0 0 C1.65 0 3.3 0 5 0 C5 1.66666667 5 3.33333333 5 5 C3.35 5 1.7 5 0 5 C0 3.35 0 1.7 0 0 Z " fill="#C5A311" transform="translate(126,120)"/>
<path d="M0 0 C0.99 0 1.98 0 3 0 C3 1.65 3 3.3 3 5 C1.68 5.33 0.36 5.66 -1 6 C-0.67 4.02 -0.34 2.04 0 0 Z " fill="#ECBE08" transform="translate(71,87)"/>
<path d="M0 0 C1.74627478 2.61941217 2.38722388 4.03824877 3 7 C0.29120665 8.35439668 -2.00933268 8.06501451 -5 8 C-4.0409375 7.690625 -4.0409375 7.690625 -3.0625 7.375 C-0.65074923 6.10461791 -0.65074923 6.10461791 -0.25 2.875 C-0.1675 1.92625 -0.085 0.9775 0 0 Z " fill="#5A7324" transform="translate(78,76)"/>
<path d="M0 0 C1.98 0 3.96 0 6 0 C6.33 1.32 6.66 2.64 7 4 C5.02 4.66 3.04 5.32 1 6 C1.33 5.34 1.66 4.68 2 4 C2.99 4 3.98 4 5 4 C5 3.34 5 2.68 5 2 C3.35 1.67 1.7 1.34 0 1 C0 0.67 0 0.34 0 0 Z " fill="#767B0D" transform="translate(112,97)"/>
<path d="M0 0 C0.33 0 0.66 0 1 0 C1.66 4.29 2.32 8.58 3 13 C2.34 13 1.68 13 1 13 C1 12.34 1 11.68 1 11 C0.34 10.67 -0.32 10.34 -1 10 C-0.67 6.7 -0.34 3.4 0 0 Z " fill="#E3C213" transform="translate(117,79)"/>
<path d="M0 0 C1.4540625 0.0309375 1.4540625 0.0309375 2.9375 0.0625 C1.9375 1.5625 1.9375 1.5625 -0.0625 3.0625 C-2.78096235 3.33595479 -5.31927199 3.19741285 -8.0625 3.0625 C-7.423125 2.753125 -6.78375 2.44375 -6.125 2.125 C-2.0825 0.0425 -2.0825 0.0425 0 0 Z " fill="#55761E" transform="translate(94.0625,62.9375)"/>
<path d="M0 0 C2 1.8125 2 1.8125 4 4 C4 4.99 4 5.98 4 7 C3.01 7 2.02 7 1 7 C-0.0625 4.625 -0.0625 4.625 -1 2 C-0.67 1.34 -0.34 0.68 0 0 Z " fill="#5C4B13" transform="translate(197,60)"/>
<path d="M0 0 C1.09658936 3.28976808 0.79953138 4.71303767 0 8 C-0.99 8.33 -1.98 8.66 -3 9 C-2.44271087 5.65626525 -1.64826111 2.96687001 0 0 Z " fill="#A89636" transform="translate(147,82)"/>
<path d="M0 0 C0.33 0.66 0.66 1.32 1 2 C-0.98 2.33 -2.96 2.66 -5 3 C-5 2.34 -5 1.68 -5 1 C-5.66 0.67 -6.32 0.34 -7 0 C-3.88407501 -1.03864166 -2.9737344 -1.09036928 0 0 Z " fill="#758010" transform="translate(75,83)"/>
<path d="M0 0 C1.65 0 3.3 0 5 0 C4.125 7.75 4.125 7.75 3 10 C1 8 1 8 0.9375 5 C0.958125 4.01 0.97875 3.02 1 2 C0.67 1.34 0.34 0.68 0 0 Z " fill="#7E800C" transform="translate(92,46)"/>
<path d="M0 0 C0.33 0 0.66 0 1 0 C1.125 5.75 1.125 5.75 0 8 C-0.99 8 -1.98 8 -3 8 C-1.125 2.25 -1.125 2.25 0 0 Z " fill="#DABE24" transform="translate(28,117)"/>
<path d="M0 0 C0.66 0 1.32 0 2 0 C2.33 1.32 2.66 2.64 3 4 C2.34 4 1.68 4 1 4 C0.67 4.99 0.34 5.98 0 7 C-0.66 6.67 -1.32 6.34 -2 6 C-1.34 4.02 -0.68 2.04 0 0 Z " fill="#CBDBCB" transform="translate(197,68)"/>
<path d="M0 0 C1.32 0 2.64 0 4 0 C3.67 1.65 3.34 3.3 3 5 C2.01 5 1.02 5 0 5 C-0.5625 3.0625 -0.5625 3.0625 -1 1 C-0.67 0.67 -0.34 0.34 0 0 Z " fill="#4B792D" transform="translate(90,48)"/>
<path d="M0 0 C-0.99 0.33 -1.98 0.66 -3 1 C-3.33 2.65 -3.66 4.3 -4 6 C-5.5 4.625 -5.5 4.625 -7 3 C-7 2.34 -7 1.68 -7 1 C-4.53721199 -0.231394 -2.7204945 -0.07159196 0 0 Z " fill="#CDBB1F" transform="translate(74,86)"/>
<path d="M0 0 C1.65 0 3.3 0 5 0 C4.67 1.32 4.34 2.64 4 4 C2.68 4 1.36 4 0 4 C0 2.68 0 1.36 0 0 Z " fill="#F3BC00" transform="translate(86,72)"/>
<path d="M0 0 C2 2 2 2 2 5 C2.66 5.33 3.32 5.66 4 6 C2.35 6 0.7 6 -1 6 C-1.33 5.01 -1.66 4.02 -2 3 C-1.34 3 -0.68 3 0 3 C0 2.01 0 1.02 0 0 Z " fill="#E0C210" transform="translate(93,40)"/>
<path d="M0 0 C0.99 0 1.98 0 3 0 C3 0.99 3 1.98 3 3 C1.68 3.33 0.36 3.66 -1 4 C-1 1 -1 1 0 0 Z " fill="#74756C" transform="translate(178,75)"/>
<path d="M0 0 C1.32 0.33 2.64 0.66 4 1 C4 1.99 4 2.98 4 4 C2.68 3.67 1.36 3.34 0 3 C0 2.01 0 1.02 0 0 Z " fill="#676767" transform="translate(162,98)"/>
<path d="M0 0 C0.99 0 1.98 0 3 0 C2.67 1.32 2.34 2.64 2 4 C1.01 3.67 0.02 3.34 -1 3 C-0.67 2.01 -0.34 1.02 0 0 Z " fill="#616161" transform="translate(162,87)"/>
<path d="M0 0 C0.33 0 0.66 0 1 0 C1 1.65 1 3.3 1 5 C0.34 5 -0.32 5 -1 5 C-1.33 4.01 -1.66 3.02 -2 2 C-1.34 1.34 -0.68 0.68 0 0 Z " fill="#6A6A6A" transform="translate(161,92)"/>
<path d="M0 0 C0.99 0.33 1.98 0.66 3 1 C2.67 1.66 2.34 2.32 2 3 C0.68 2.67 -0.64 2.34 -2 2 C-1.34 1.34 -0.68 0.68 0 0 Z " fill="#65675A" transform="translate(151,83)"/>
<path d="M0 0 C0.99 0.33 1.98 0.66 3 1 C3 1.66 3 2.32 3 3 C1.35 2.67 -0.3 2.34 -2 2 C-1.34 1.34 -0.68 0.68 0 0 Z " fill="#686A68" transform="translate(157,81)"/>
<path d="M0 0 C0.99 0.33 1.98 0.66 3 1 C2.01 1.99 1.02 2.98 0 4 C-0.33 3.01 -0.66 2.02 -1 1 C-0.67 0.67 -0.34 0.34 0 0 Z " fill="#61635D" transform="translate(172,78)"/>
<path d="M0 0 C0.66 0 1.32 0 2 0 C1.67 1.32 1.34 2.64 1 4 C0.34 4 -0.32 4 -1 4 C-0.67 2.68 -0.34 1.36 0 0 Z " fill="#5F5F5F" transform="translate(169,96)"/>
<path d="M0 0 C0.66 0.66 1.32 1.32 2 2 C1.01 3.485 1.01 3.485 0 5 C-0.5625 3.0625 -0.5625 3.0625 -1 1 C-0.67 0.67 -0.34 0.34 0 0 Z " fill="#6B6B6B" transform="translate(172,90)"/>
</svg>
